G75*
G70*
%OFA0B0*%
%FSLAX24Y24*%
%IPPOS*%
%LPD*%
%AMOC8*
5,1,8,0,0,1.08239X$1,22.5*
%
%ADD10C,0.0080*%
%ADD11C,0.0100*%
%ADD12C,0.0401*%
%ADD13C,0.0050*%
%ADD14C,0.0060*%
%ADD15R,0.0193X0.0433*%
D10*
X008258Y007605D02*
X008258Y007712D01*
X008312Y007765D01*
X008258Y007920D02*
X008258Y008133D01*
X008258Y008288D02*
X008258Y008502D01*
X008312Y008656D02*
X008258Y008710D01*
X008258Y008816D01*
X008312Y008870D01*
X008365Y008870D01*
X008419Y008816D01*
X008419Y008763D01*
X008419Y008816D02*
X008472Y008870D01*
X008525Y008870D01*
X008579Y008816D01*
X008579Y008710D01*
X008525Y008656D01*
X008579Y008288D02*
X008258Y008288D01*
X008419Y008026D02*
X008419Y007920D01*
X008579Y007920D02*
X008258Y007920D01*
X008525Y007765D02*
X008579Y007712D01*
X008579Y007605D01*
X008525Y007551D01*
X008312Y007551D01*
X008258Y007605D01*
X008579Y007920D02*
X008579Y008133D01*
X008475Y010751D02*
X008262Y010751D01*
X008208Y010805D01*
X008208Y010912D01*
X008262Y010965D01*
X008208Y011120D02*
X008208Y011333D01*
X008208Y011488D02*
X008208Y011702D01*
X008208Y011856D02*
X008208Y012070D01*
X008208Y011963D02*
X008529Y011963D01*
X008422Y011856D01*
X008529Y011488D02*
X008208Y011488D01*
X008369Y011226D02*
X008369Y011120D01*
X008529Y011120D02*
X008208Y011120D01*
X008475Y010965D02*
X008529Y010912D01*
X008529Y010805D01*
X008475Y010751D01*
X008529Y011120D02*
X008529Y011333D01*
X011261Y009804D02*
X011315Y009858D01*
X011421Y009858D01*
X011475Y009804D01*
X011629Y009697D02*
X011843Y009697D01*
X011683Y009858D01*
X011683Y009537D01*
X011475Y009537D02*
X011261Y009751D01*
X011261Y009804D01*
X011261Y009537D02*
X011475Y009537D01*
X011998Y009591D02*
X012051Y009537D01*
X012158Y009537D01*
X012211Y009591D01*
X012211Y009804D01*
X012158Y009858D01*
X012051Y009858D01*
X011998Y009804D01*
X014311Y009804D02*
X014525Y009591D01*
X014471Y009537D01*
X014365Y009537D01*
X014311Y009591D01*
X014311Y009804D01*
X014365Y009858D01*
X014471Y009858D01*
X014525Y009804D01*
X014525Y009591D01*
X014679Y009697D02*
X014893Y009697D01*
X014733Y009858D01*
X014733Y009537D01*
X015048Y009591D02*
X015101Y009537D01*
X015208Y009537D01*
X015261Y009591D01*
X015261Y009804D01*
X015208Y009858D01*
X015101Y009858D01*
X015048Y009804D01*
X015069Y008820D02*
X015069Y008606D01*
X015229Y008766D01*
X014908Y008766D01*
X014908Y008452D02*
X014908Y008238D01*
X015229Y008238D01*
X015229Y008083D02*
X015229Y007870D01*
X014908Y007870D01*
X014908Y008083D01*
X015069Y007976D02*
X015069Y007870D01*
X015175Y007715D02*
X015229Y007662D01*
X015229Y007555D01*
X015175Y007501D01*
X014962Y007501D01*
X014908Y007555D01*
X014908Y007662D01*
X014962Y007715D01*
X017898Y008735D02*
X017898Y008841D01*
X017952Y008895D01*
X018165Y008895D01*
X018219Y008841D01*
X018219Y008735D01*
X018165Y008681D01*
X017952Y008681D01*
X017898Y008735D01*
X017898Y009050D02*
X018219Y009050D01*
X018219Y009210D01*
X018165Y009263D01*
X018058Y009263D01*
X018005Y009210D01*
X018005Y009050D01*
X018058Y009418D02*
X018058Y009631D01*
X018112Y009631D02*
X017898Y009631D01*
X017898Y009786D02*
X018112Y010000D01*
X018165Y010000D01*
X018219Y009946D01*
X018219Y009840D01*
X018165Y009786D01*
X018112Y009631D02*
X018219Y009525D01*
X018112Y009418D01*
X017898Y009418D01*
X017898Y009786D02*
X017898Y010000D01*
X019611Y011091D02*
X019665Y011037D01*
X019771Y011037D01*
X019825Y011091D01*
X019611Y011304D01*
X019611Y011091D01*
X019611Y011304D02*
X019665Y011358D01*
X019771Y011358D01*
X019825Y011304D01*
X019825Y011091D01*
X019979Y011091D02*
X020033Y011037D01*
X020140Y011037D01*
X020193Y011091D01*
X020086Y011197D02*
X020033Y011197D01*
X019979Y011144D01*
X019979Y011091D01*
X020033Y011197D02*
X019979Y011251D01*
X019979Y011304D01*
X020033Y011358D01*
X020140Y011358D01*
X020193Y011304D01*
X020348Y011304D02*
X020348Y011197D01*
X020401Y011144D01*
X020561Y011144D01*
X020455Y011144D02*
X020348Y011037D01*
X020561Y011037D02*
X020561Y011358D01*
X020401Y011358D01*
X020348Y011304D01*
X020348Y011587D02*
X020455Y011694D01*
X020401Y011694D02*
X020561Y011694D01*
X020561Y011587D02*
X020561Y011908D01*
X020401Y011908D01*
X020348Y011854D01*
X020348Y011747D01*
X020401Y011694D01*
X020193Y011587D02*
X019979Y011801D01*
X019979Y011854D01*
X020033Y011908D01*
X020140Y011908D01*
X020193Y011854D01*
X020193Y011587D02*
X019979Y011587D01*
X019825Y011641D02*
X019825Y011694D01*
X019771Y011747D01*
X019665Y011747D01*
X019611Y011694D01*
X019611Y011641D01*
X019665Y011587D01*
X019771Y011587D01*
X019825Y011641D01*
X019771Y011747D02*
X019825Y011801D01*
X019825Y011854D01*
X019771Y011908D01*
X019665Y011908D01*
X019611Y011854D01*
X019611Y011801D01*
X019665Y011747D01*
X022611Y011801D02*
X022611Y011854D01*
X022665Y011908D01*
X022771Y011908D01*
X022825Y011854D01*
X022979Y011854D02*
X022979Y011801D01*
X023033Y011747D01*
X022979Y011694D01*
X022979Y011641D01*
X023033Y011587D01*
X023140Y011587D01*
X023193Y011641D01*
X023086Y011747D02*
X023033Y011747D01*
X022979Y011854D02*
X023033Y011908D01*
X023140Y011908D01*
X023193Y011854D01*
X023348Y011854D02*
X023348Y011747D01*
X023401Y011694D01*
X023561Y011694D01*
X023455Y011694D02*
X023348Y011587D01*
X023561Y011587D02*
X023561Y011908D01*
X023401Y011908D01*
X023348Y011854D01*
X022825Y011587D02*
X022611Y011801D01*
X022611Y011587D02*
X022825Y011587D01*
X022771Y011358D02*
X022665Y011358D01*
X022611Y011304D01*
X022611Y011251D01*
X022665Y011197D01*
X022611Y011144D01*
X022611Y011091D01*
X022665Y011037D01*
X022771Y011037D01*
X022825Y011091D01*
X022718Y011197D02*
X022665Y011197D01*
X022825Y011304D02*
X022771Y011358D01*
X022979Y011304D02*
X022979Y011251D01*
X023033Y011197D01*
X022979Y011144D01*
X022979Y011091D01*
X023033Y011037D01*
X023140Y011037D01*
X023193Y011091D01*
X023086Y011197D02*
X023033Y011197D01*
X022979Y011304D02*
X023033Y011358D01*
X023140Y011358D01*
X023193Y011304D01*
X023348Y011304D02*
X023348Y011197D01*
X023401Y011144D01*
X023561Y011144D01*
X023455Y011144D02*
X023348Y011037D01*
X023561Y011037D02*
X023561Y011358D01*
X023401Y011358D01*
X023348Y011304D01*
X023073Y009732D02*
X023019Y009732D01*
X022966Y009678D01*
X022912Y009732D01*
X022859Y009732D01*
X022806Y009678D01*
X022806Y009572D01*
X022859Y009518D01*
X022966Y009625D02*
X022966Y009678D01*
X023073Y009732D02*
X023126Y009678D01*
X023126Y009572D01*
X023073Y009518D01*
X022966Y009364D02*
X022966Y009150D01*
X023126Y009310D01*
X022806Y009310D01*
X022859Y008995D02*
X022806Y008942D01*
X022806Y008835D01*
X022859Y008782D01*
X023073Y008782D01*
X023126Y008835D01*
X023126Y008942D01*
X023073Y008995D01*
X024086Y006284D02*
X024407Y006284D01*
X024246Y006124D01*
X024246Y006337D01*
X024246Y005969D02*
X024246Y005756D01*
X024407Y005916D01*
X024086Y005916D01*
X024086Y005601D02*
X024193Y005494D01*
X024193Y005547D02*
X024193Y005387D01*
X024086Y005387D02*
X024407Y005387D01*
X024407Y005547D01*
X024353Y005601D01*
X024246Y005601D01*
X024193Y005547D01*
X024403Y004237D02*
X024190Y004024D01*
X024136Y004024D01*
X024136Y003816D02*
X024457Y003816D01*
X024296Y003656D01*
X024296Y003869D01*
X024457Y004024D02*
X024457Y004237D01*
X024403Y004237D01*
X024403Y003501D02*
X024296Y003501D01*
X024243Y003447D01*
X024243Y003287D01*
X024136Y003287D02*
X024457Y003287D01*
X024457Y003447D01*
X024403Y003501D01*
X024243Y003394D02*
X024136Y003501D01*
X031636Y006387D02*
X031957Y006387D01*
X031957Y006547D01*
X031903Y006601D01*
X031796Y006601D01*
X031743Y006547D01*
X031743Y006387D01*
X031743Y006494D02*
X031636Y006601D01*
X031690Y006756D02*
X031636Y006809D01*
X031636Y006916D01*
X031690Y006969D01*
X031743Y006969D01*
X031796Y006916D01*
X031796Y006756D01*
X031690Y006756D01*
X031796Y006756D02*
X031903Y006862D01*
X031957Y006969D01*
X031796Y007124D02*
X031796Y007284D01*
X031743Y007337D01*
X031690Y007337D01*
X031636Y007284D01*
X031636Y007177D01*
X031690Y007124D01*
X031796Y007124D01*
X031903Y007231D01*
X031957Y007337D01*
X033436Y007124D02*
X033490Y007124D01*
X033703Y007337D01*
X033757Y007337D01*
X033757Y007124D01*
X033757Y006969D02*
X033703Y006862D01*
X033596Y006756D01*
X033596Y006916D01*
X033543Y006969D01*
X033490Y006969D01*
X033436Y006916D01*
X033436Y006809D01*
X033490Y006756D01*
X033596Y006756D01*
X033596Y006601D02*
X033543Y006547D01*
X033543Y006387D01*
X033436Y006387D02*
X033757Y006387D01*
X033757Y006547D01*
X033703Y006601D01*
X033596Y006601D01*
X033543Y006494D02*
X033436Y006601D01*
X033436Y009637D02*
X033757Y009637D01*
X033757Y009797D01*
X033703Y009851D01*
X033596Y009851D01*
X033543Y009797D01*
X033543Y009637D01*
X033543Y009744D02*
X033436Y009851D01*
X033490Y010006D02*
X033436Y010059D01*
X033436Y010166D01*
X033490Y010219D01*
X033543Y010219D01*
X033596Y010166D01*
X033596Y010006D01*
X033490Y010006D01*
X033596Y010006D02*
X033703Y010112D01*
X033757Y010219D01*
X033757Y010374D02*
X033596Y010374D01*
X033650Y010481D01*
X033650Y010534D01*
X033596Y010587D01*
X033490Y010587D01*
X033436Y010534D01*
X033436Y010427D01*
X033490Y010374D01*
X033757Y010374D02*
X033757Y010587D01*
X031957Y010534D02*
X031796Y010374D01*
X031796Y010587D01*
X031636Y010534D02*
X031957Y010534D01*
X031957Y010219D02*
X031903Y010112D01*
X031796Y010006D01*
X031796Y010166D01*
X031743Y010219D01*
X031690Y010219D01*
X031636Y010166D01*
X031636Y010059D01*
X031690Y010006D01*
X031796Y010006D01*
X031796Y009851D02*
X031743Y009797D01*
X031743Y009637D01*
X031636Y009637D02*
X031957Y009637D01*
X031957Y009797D01*
X031903Y009851D01*
X031796Y009851D01*
X031743Y009744D02*
X031636Y009851D01*
X037864Y017254D02*
X039754Y017254D01*
X039754Y017450D01*
X037864Y017450D01*
X037864Y017254D01*
X037864Y017450D02*
X037864Y018750D01*
X039754Y018750D01*
X039754Y017450D01*
X039949Y017445D02*
X039949Y017552D01*
X040003Y017605D01*
X040270Y017605D01*
X040216Y017760D02*
X040003Y017760D01*
X039949Y017813D01*
X039949Y017920D01*
X040003Y017973D01*
X039949Y018128D02*
X040163Y018128D01*
X040270Y018235D01*
X040163Y018342D01*
X039949Y018342D01*
X039949Y018497D02*
X040270Y018497D01*
X039949Y018710D01*
X040270Y018710D01*
X040109Y018342D02*
X040109Y018128D01*
X040216Y017973D02*
X040270Y017920D01*
X040270Y017813D01*
X040216Y017760D01*
X040270Y017392D02*
X040003Y017392D01*
X039949Y017445D01*
X039935Y019738D02*
X040255Y019738D01*
X040255Y019898D01*
X040202Y019951D01*
X040095Y019951D01*
X040042Y019898D01*
X040042Y019738D01*
X040042Y019845D02*
X039935Y019951D01*
X039935Y020106D02*
X039989Y020106D01*
X040202Y020320D01*
X040255Y020320D01*
X040255Y020106D01*
X040202Y020474D02*
X040149Y020474D01*
X040095Y020528D01*
X040095Y020635D01*
X040042Y020688D01*
X039989Y020688D01*
X039935Y020635D01*
X039935Y020528D01*
X039989Y020474D01*
X040042Y020474D01*
X040095Y020528D01*
X040095Y020635D02*
X040149Y020688D01*
X040202Y020688D01*
X040255Y020635D01*
X040255Y020528D01*
X040202Y020474D01*
X039634Y021393D02*
X039420Y021393D01*
X039367Y021447D01*
X039367Y021554D01*
X039420Y021607D01*
X039634Y021607D01*
X039687Y021554D01*
X039687Y021447D01*
X039634Y021393D01*
X039687Y021762D02*
X039367Y021762D01*
X039474Y021762D02*
X039474Y021922D01*
X039527Y021975D01*
X039634Y021975D01*
X039687Y021922D01*
X039687Y021762D01*
X039687Y022130D02*
X039687Y022344D01*
X039687Y022237D02*
X039367Y022237D01*
X039420Y022498D02*
X039367Y022552D01*
X039367Y022659D01*
X039420Y022712D01*
X039634Y022712D01*
X039687Y022659D01*
X039687Y022552D01*
X039634Y022498D01*
X039420Y022498D01*
X039367Y022867D02*
X039367Y023080D01*
X039367Y022974D02*
X039687Y022974D01*
X039581Y022867D01*
X039634Y023235D02*
X039687Y023288D01*
X039687Y023395D01*
X039634Y023449D01*
X039581Y023449D01*
X039527Y023395D01*
X039474Y023449D01*
X039420Y023449D01*
X039367Y023395D01*
X039367Y023288D01*
X039420Y023235D01*
X039527Y023342D02*
X039527Y023395D01*
X039420Y024843D02*
X039367Y024897D01*
X039367Y025004D01*
X039420Y025057D01*
X039634Y025057D01*
X039687Y025004D01*
X039687Y024897D01*
X039634Y024843D01*
X039420Y024843D01*
X039367Y025212D02*
X039687Y025212D01*
X039687Y025372D01*
X039634Y025425D01*
X039527Y025425D01*
X039474Y025372D01*
X039474Y025212D01*
X039687Y025580D02*
X039687Y025794D01*
X039687Y025687D02*
X039367Y025687D01*
X039420Y025948D02*
X039367Y026002D01*
X039367Y026109D01*
X039420Y026162D01*
X039634Y026162D01*
X039687Y026109D01*
X039687Y026002D01*
X039634Y025948D01*
X039420Y025948D01*
X039367Y026317D02*
X039367Y026530D01*
X039367Y026424D02*
X039687Y026424D01*
X039581Y026317D01*
X039634Y026685D02*
X039687Y026738D01*
X039687Y026845D01*
X039634Y026899D01*
X039581Y026899D01*
X039367Y026685D01*
X039367Y026899D01*
X039420Y028343D02*
X039367Y028397D01*
X039367Y028504D01*
X039420Y028557D01*
X039634Y028557D01*
X039687Y028504D01*
X039687Y028397D01*
X039634Y028343D01*
X039420Y028343D01*
X039367Y028712D02*
X039687Y028712D01*
X039687Y028872D01*
X039634Y028925D01*
X039527Y028925D01*
X039474Y028872D01*
X039474Y028712D01*
X039687Y029080D02*
X039687Y029294D01*
X039687Y029187D02*
X039367Y029187D01*
X039420Y029448D02*
X039367Y029502D01*
X039367Y029609D01*
X039420Y029662D01*
X039634Y029662D01*
X039687Y029609D01*
X039687Y029502D01*
X039634Y029448D01*
X039420Y029448D01*
X039367Y029817D02*
X039367Y030030D01*
X039367Y029924D02*
X039687Y029924D01*
X039581Y029817D01*
X039581Y030185D02*
X039687Y030292D01*
X039367Y030292D01*
X039367Y030185D02*
X039367Y030399D01*
X039420Y031843D02*
X039367Y031897D01*
X039367Y032004D01*
X039420Y032057D01*
X039634Y032057D01*
X039687Y032004D01*
X039687Y031897D01*
X039634Y031843D01*
X039420Y031843D01*
X039367Y032212D02*
X039687Y032212D01*
X039687Y032372D01*
X039634Y032425D01*
X039527Y032425D01*
X039474Y032372D01*
X039474Y032212D01*
X039687Y032580D02*
X039687Y032794D01*
X039687Y032687D02*
X039367Y032687D01*
X039420Y032948D02*
X039367Y033002D01*
X039367Y033109D01*
X039420Y033162D01*
X039634Y033162D01*
X039687Y033109D01*
X039687Y033002D01*
X039634Y032948D01*
X039420Y032948D01*
X039367Y033317D02*
X039367Y033530D01*
X039367Y033424D02*
X039687Y033424D01*
X039581Y033317D01*
X039634Y033685D02*
X039687Y033738D01*
X039687Y033845D01*
X039634Y033899D01*
X039420Y033685D01*
X039367Y033738D01*
X039367Y033845D01*
X039420Y033899D01*
X039634Y033899D01*
X039634Y033685D02*
X039420Y033685D01*
X039420Y035712D02*
X039367Y035765D01*
X039367Y035872D01*
X039420Y035925D01*
X039634Y035925D01*
X039687Y035872D01*
X039687Y035765D01*
X039634Y035712D01*
X039420Y035712D01*
X039367Y036080D02*
X039687Y036080D01*
X039687Y036240D01*
X039634Y036294D01*
X039527Y036294D01*
X039474Y036240D01*
X039474Y036080D01*
X039687Y036448D02*
X039687Y036662D01*
X039687Y036555D02*
X039367Y036555D01*
X039420Y036817D02*
X039367Y036870D01*
X039367Y036977D01*
X039420Y037030D01*
X039634Y037030D01*
X039687Y036977D01*
X039687Y036870D01*
X039634Y036817D01*
X039420Y036817D01*
X039420Y037185D02*
X039367Y037238D01*
X039367Y037345D01*
X039420Y037399D01*
X039634Y037399D01*
X039687Y037345D01*
X039687Y037238D01*
X039634Y037185D01*
X039581Y037185D01*
X039527Y037238D01*
X039527Y037399D01*
X036637Y037345D02*
X036477Y037185D01*
X036477Y037399D01*
X036317Y037345D02*
X036637Y037345D01*
X036637Y036924D02*
X036317Y036924D01*
X036317Y037030D02*
X036317Y036817D01*
X036370Y036662D02*
X036584Y036662D01*
X036637Y036609D01*
X036637Y036502D01*
X036584Y036448D01*
X036370Y036448D01*
X036317Y036502D01*
X036317Y036609D01*
X036370Y036662D01*
X036531Y036817D02*
X036637Y036924D01*
X036637Y036294D02*
X036637Y036080D01*
X036637Y036187D02*
X036317Y036187D01*
X036477Y035925D02*
X036424Y035872D01*
X036424Y035712D01*
X036317Y035712D02*
X036637Y035712D01*
X036637Y035872D01*
X036584Y035925D01*
X036477Y035925D01*
X036370Y035557D02*
X036584Y035557D01*
X036637Y035504D01*
X036637Y035397D01*
X036584Y035343D01*
X036370Y035343D01*
X036317Y035397D01*
X036317Y035504D01*
X036370Y035557D01*
X036420Y033899D02*
X036367Y033845D01*
X036367Y033738D01*
X036420Y033685D01*
X036527Y033685D02*
X036581Y033792D01*
X036581Y033845D01*
X036527Y033899D01*
X036420Y033899D01*
X036527Y033685D02*
X036687Y033685D01*
X036687Y033899D01*
X036687Y033424D02*
X036367Y033424D01*
X036367Y033530D02*
X036367Y033317D01*
X036420Y033162D02*
X036634Y033162D01*
X036687Y033109D01*
X036687Y033002D01*
X036634Y032948D01*
X036420Y032948D01*
X036367Y033002D01*
X036367Y033109D01*
X036420Y033162D01*
X036581Y033317D02*
X036687Y033424D01*
X036687Y032794D02*
X036687Y032580D01*
X036687Y032687D02*
X036367Y032687D01*
X036527Y032425D02*
X036474Y032372D01*
X036474Y032212D01*
X036367Y032212D02*
X036687Y032212D01*
X036687Y032372D01*
X036634Y032425D01*
X036527Y032425D01*
X036420Y032057D02*
X036634Y032057D01*
X036687Y032004D01*
X036687Y031897D01*
X036634Y031843D01*
X036420Y031843D01*
X036367Y031897D01*
X036367Y032004D01*
X036420Y032057D01*
X036420Y030349D02*
X036474Y030349D01*
X036527Y030295D01*
X036527Y030135D01*
X036420Y030135D01*
X036367Y030188D01*
X036367Y030295D01*
X036420Y030349D01*
X036634Y030242D02*
X036527Y030135D01*
X036634Y030242D02*
X036687Y030349D01*
X036687Y029874D02*
X036367Y029874D01*
X036367Y029980D02*
X036367Y029767D01*
X036420Y029612D02*
X036634Y029612D01*
X036687Y029559D01*
X036687Y029452D01*
X036634Y029398D01*
X036420Y029398D01*
X036367Y029452D01*
X036367Y029559D01*
X036420Y029612D01*
X036581Y029767D02*
X036687Y029874D01*
X036687Y029244D02*
X036687Y029030D01*
X036687Y029137D02*
X036367Y029137D01*
X036527Y028875D02*
X036474Y028822D01*
X036474Y028662D01*
X036367Y028662D02*
X036687Y028662D01*
X036687Y028822D01*
X036634Y028875D01*
X036527Y028875D01*
X036420Y028507D02*
X036634Y028507D01*
X036687Y028454D01*
X036687Y028347D01*
X036634Y028293D01*
X036420Y028293D01*
X036367Y028347D01*
X036367Y028454D01*
X036420Y028507D01*
X036634Y026899D02*
X036420Y026685D01*
X036367Y026685D01*
X036367Y026530D02*
X036367Y026317D01*
X036367Y026424D02*
X036687Y026424D01*
X036581Y026317D01*
X036634Y026162D02*
X036687Y026109D01*
X036687Y026002D01*
X036634Y025948D01*
X036420Y025948D01*
X036367Y026002D01*
X036367Y026109D01*
X036420Y026162D01*
X036634Y026162D01*
X036687Y025794D02*
X036687Y025580D01*
X036687Y025687D02*
X036367Y025687D01*
X036527Y025425D02*
X036474Y025372D01*
X036474Y025212D01*
X036367Y025212D02*
X036687Y025212D01*
X036687Y025372D01*
X036634Y025425D01*
X036527Y025425D01*
X036420Y025057D02*
X036634Y025057D01*
X036687Y025004D01*
X036687Y024897D01*
X036634Y024843D01*
X036420Y024843D01*
X036367Y024897D01*
X036367Y025004D01*
X036420Y025057D01*
X036424Y023399D02*
X036370Y023399D01*
X036317Y023345D01*
X036317Y023238D01*
X036370Y023185D01*
X036424Y023185D01*
X036477Y023238D01*
X036477Y023345D01*
X036424Y023399D01*
X036477Y023345D02*
X036531Y023399D01*
X036584Y023399D01*
X036637Y023345D01*
X036637Y023238D01*
X036584Y023185D01*
X036531Y023185D01*
X036477Y023238D01*
X036317Y023030D02*
X036317Y022817D01*
X036317Y022924D02*
X036637Y022924D01*
X036531Y022817D01*
X036584Y022662D02*
X036637Y022609D01*
X036637Y022502D01*
X036584Y022448D01*
X036370Y022448D01*
X036317Y022502D01*
X036317Y022609D01*
X036370Y022662D01*
X036584Y022662D01*
X036637Y022294D02*
X036637Y022080D01*
X036637Y022187D02*
X036317Y022187D01*
X036477Y021925D02*
X036424Y021872D01*
X036424Y021712D01*
X036317Y021712D02*
X036637Y021712D01*
X036637Y021872D01*
X036584Y021925D01*
X036477Y021925D01*
X036370Y021557D02*
X036584Y021557D01*
X036637Y021504D01*
X036637Y021397D01*
X036584Y021343D01*
X036370Y021343D01*
X036317Y021397D01*
X036317Y021504D01*
X036370Y021557D01*
X037836Y020419D02*
X037890Y020419D01*
X038103Y020632D01*
X038157Y020632D01*
X038157Y020419D01*
X038157Y020264D02*
X038103Y020264D01*
X037890Y020051D01*
X037836Y020051D01*
X037836Y019896D02*
X037943Y019789D01*
X037943Y019842D02*
X037943Y019682D01*
X037836Y019682D02*
X038157Y019682D01*
X038157Y019842D01*
X038103Y019896D01*
X037996Y019896D01*
X037943Y019842D01*
X038157Y020051D02*
X038157Y020264D01*
X037174Y018351D02*
X037121Y018244D01*
X037014Y018137D01*
X037014Y018298D01*
X036960Y018351D01*
X036907Y018351D01*
X036854Y018298D01*
X036854Y018191D01*
X036907Y018137D01*
X037014Y018137D01*
X037014Y017983D02*
X037014Y017769D01*
X037174Y017929D01*
X036854Y017929D01*
X036907Y017614D02*
X036854Y017561D01*
X036854Y017454D01*
X036907Y017401D01*
X037121Y017401D01*
X037174Y017454D01*
X037174Y017561D01*
X037121Y017614D01*
X029270Y020989D02*
X029119Y020838D01*
X029043Y020838D01*
X028968Y020913D01*
X028968Y020989D01*
X028858Y021098D02*
X028783Y021098D01*
X028707Y021174D01*
X028707Y021249D01*
X028745Y021287D01*
X028820Y021287D01*
X028858Y021249D01*
X028820Y021287D02*
X028820Y021362D01*
X028858Y021400D01*
X028934Y021400D01*
X029009Y021325D01*
X029009Y021249D01*
X029119Y021140D02*
X029194Y021140D01*
X029270Y021064D01*
X029270Y020989D01*
X028972Y022489D02*
X029139Y022656D01*
X028972Y023547D02*
X028638Y023881D01*
X028800Y024077D02*
X028649Y024228D01*
X028724Y024152D02*
X028951Y024379D01*
X028951Y024228D01*
X029136Y024194D02*
X029060Y023816D01*
X029208Y023744D02*
X029208Y023669D01*
X029283Y023594D01*
X029359Y023594D01*
X029509Y023744D01*
X029509Y023820D01*
X029434Y023895D01*
X029359Y023895D01*
X029287Y024043D02*
X028909Y023967D01*
X027747Y024048D02*
X027580Y023881D01*
X027747Y022990D02*
X028081Y022656D01*
X026539Y023743D02*
X026388Y023592D01*
X026312Y023592D01*
X026237Y023667D01*
X026237Y023743D01*
X026089Y023814D02*
X026089Y024116D01*
X026127Y024154D01*
X026203Y024154D01*
X026278Y024078D01*
X026278Y024003D01*
X026388Y023894D02*
X026463Y023894D01*
X026539Y023818D01*
X026539Y023743D01*
X026089Y023814D02*
X025938Y023965D01*
X024903Y026737D02*
X024690Y026737D01*
X024636Y026791D01*
X024636Y026897D01*
X024690Y026951D01*
X024636Y027106D02*
X024636Y027319D01*
X024636Y027212D02*
X024957Y027212D01*
X024850Y027106D01*
X024903Y026951D02*
X024957Y026897D01*
X024957Y026791D01*
X024903Y026737D01*
X024903Y027474D02*
X024850Y027474D01*
X024796Y027527D01*
X024796Y027634D01*
X024743Y027687D01*
X024690Y027687D01*
X024636Y027634D01*
X024636Y027527D01*
X024690Y027474D01*
X024743Y027474D01*
X024796Y027527D01*
X024796Y027634D02*
X024850Y027687D01*
X024903Y027687D01*
X024957Y027634D01*
X024957Y027527D01*
X024903Y027474D01*
X026460Y028137D02*
X026460Y028458D01*
X026620Y028297D01*
X026406Y028297D01*
X026774Y028244D02*
X026774Y028191D01*
X026828Y028137D01*
X026935Y028137D01*
X026988Y028191D01*
X026988Y028244D01*
X026935Y028297D01*
X026828Y028297D01*
X026774Y028244D01*
X026828Y028297D02*
X026774Y028351D01*
X026774Y028404D01*
X026828Y028458D01*
X026935Y028458D01*
X026988Y028404D01*
X026988Y028351D01*
X026935Y028297D01*
X027143Y028297D02*
X027196Y028244D01*
X027356Y028244D01*
X027250Y028244D02*
X027143Y028137D01*
X027143Y028297D02*
X027143Y028404D01*
X027196Y028458D01*
X027356Y028458D01*
X027356Y028137D01*
X027293Y029087D02*
X027346Y029141D01*
X027293Y029087D02*
X027186Y029087D01*
X027133Y029141D01*
X027133Y029194D01*
X027186Y029247D01*
X027240Y029247D01*
X027186Y029247D02*
X027133Y029301D01*
X027133Y029354D01*
X027186Y029408D01*
X027293Y029408D01*
X027346Y029354D01*
X027501Y029354D02*
X027501Y029247D01*
X027555Y029194D01*
X027715Y029194D01*
X027715Y029087D02*
X027715Y029408D01*
X027555Y029408D01*
X027501Y029354D01*
X027870Y029408D02*
X027870Y029194D01*
X027976Y029087D01*
X028083Y029194D01*
X028083Y029408D01*
X027996Y029647D02*
X027996Y030147D01*
X028346Y030147D01*
X028396Y030147D02*
X028296Y030047D01*
X028396Y030147D02*
X028296Y030247D01*
X028686Y030212D02*
X029007Y030212D01*
X028900Y030106D01*
X028953Y029951D02*
X028846Y029951D01*
X028793Y029897D01*
X028793Y029737D01*
X028686Y029737D02*
X029007Y029737D01*
X029007Y029897D01*
X028953Y029951D01*
X028793Y029844D02*
X028686Y029951D01*
X028686Y030106D02*
X028686Y030319D01*
X028846Y030474D02*
X028846Y030687D01*
X028686Y030634D02*
X029007Y030634D01*
X028846Y030474D01*
X029164Y030923D02*
X029772Y031531D01*
X029772Y034643D01*
X029771Y034643D02*
X029769Y034678D01*
X029764Y034713D01*
X029755Y034747D01*
X029742Y034779D01*
X029726Y034810D01*
X029707Y034840D01*
X029685Y034867D01*
X029660Y034892D01*
X029633Y034914D01*
X029603Y034933D01*
X029572Y034949D01*
X029540Y034962D01*
X029506Y034971D01*
X029471Y034976D01*
X029436Y034978D01*
X029403Y036737D02*
X029296Y036737D01*
X029243Y036791D01*
X029088Y036737D02*
X028874Y036951D01*
X028874Y037004D01*
X028928Y037058D01*
X029035Y037058D01*
X029088Y037004D01*
X029243Y037004D02*
X029296Y037058D01*
X029403Y037058D01*
X029456Y037004D01*
X029456Y036791D01*
X029403Y036737D01*
X029088Y036737D02*
X028874Y036737D01*
X028720Y036791D02*
X028666Y036737D01*
X028560Y036737D01*
X028506Y036791D01*
X028506Y036844D01*
X028560Y036897D01*
X028613Y036897D01*
X028560Y036897D02*
X028506Y036951D01*
X028506Y037004D01*
X028560Y037058D01*
X028666Y037058D01*
X028720Y037004D01*
X029065Y037387D02*
X029171Y037387D01*
X029225Y037441D01*
X029225Y037547D02*
X029118Y037601D01*
X029065Y037601D01*
X029011Y037547D01*
X029011Y037441D01*
X029065Y037387D01*
X029225Y037547D02*
X029225Y037708D01*
X029011Y037708D01*
X029486Y037708D02*
X029486Y037387D01*
X029593Y037387D02*
X029379Y037387D01*
X029593Y037601D02*
X029486Y037708D01*
X029748Y037654D02*
X029748Y037547D01*
X029801Y037494D01*
X029961Y037494D01*
X029855Y037494D02*
X029748Y037387D01*
X029961Y037387D02*
X029961Y037708D01*
X029801Y037708D01*
X029748Y037654D01*
X029862Y038207D02*
X029968Y038207D01*
X030022Y038260D01*
X030022Y038367D02*
X029915Y038420D01*
X029862Y038420D01*
X029808Y038367D01*
X029808Y038260D01*
X029862Y038207D01*
X030022Y038367D02*
X030022Y038527D01*
X029808Y038527D01*
X030177Y038473D02*
X030177Y038420D01*
X030230Y038367D01*
X030337Y038367D01*
X030390Y038420D01*
X030390Y038473D01*
X030337Y038527D01*
X030230Y038527D01*
X030177Y038473D01*
X030230Y038367D02*
X030177Y038313D01*
X030177Y038260D01*
X030230Y038207D01*
X030337Y038207D01*
X030390Y038260D01*
X030390Y038313D01*
X030337Y038367D01*
X030545Y038367D02*
X030758Y038367D01*
X030598Y038527D01*
X030598Y038207D01*
X030913Y038260D02*
X030967Y038207D01*
X031073Y038207D01*
X031127Y038260D01*
X031073Y038367D02*
X030967Y038367D01*
X030913Y038313D01*
X030913Y038260D01*
X031073Y038367D02*
X031127Y038420D01*
X031127Y038473D01*
X031073Y038527D01*
X030967Y038527D01*
X030913Y038473D01*
X031282Y038473D02*
X031282Y038367D01*
X031335Y038313D01*
X031495Y038313D01*
X031495Y038207D02*
X031495Y038527D01*
X031335Y038527D01*
X031282Y038473D01*
X031388Y038313D02*
X031282Y038207D01*
X031650Y038260D02*
X031650Y038527D01*
X031863Y038527D02*
X031863Y038260D01*
X031810Y038207D01*
X031703Y038207D01*
X031650Y038260D01*
X028527Y038516D02*
X028473Y038463D01*
X028367Y038463D01*
X028313Y038516D01*
X028158Y038623D02*
X027945Y038623D01*
X027790Y038623D02*
X027683Y038676D01*
X027630Y038676D01*
X027577Y038623D01*
X027577Y038516D01*
X027630Y038463D01*
X027737Y038463D01*
X027790Y038516D01*
X027790Y038623D02*
X027790Y038783D01*
X027577Y038783D01*
X027998Y038783D02*
X027998Y038463D01*
X028158Y038623D02*
X027998Y038783D01*
X028313Y038730D02*
X028367Y038783D01*
X028473Y038783D01*
X028527Y038730D01*
X028527Y038516D01*
X025747Y037395D02*
X025640Y037395D01*
X025693Y037395D02*
X025693Y037075D01*
X025640Y037075D02*
X025747Y037075D01*
X025501Y037075D02*
X025501Y037395D01*
X025341Y037395D01*
X025288Y037342D01*
X025288Y037235D01*
X025341Y037181D01*
X025501Y037181D01*
X025133Y037128D02*
X025080Y037075D01*
X024973Y037075D01*
X024920Y037128D01*
X024920Y037181D01*
X024973Y037235D01*
X025026Y037235D01*
X024973Y037235D02*
X024920Y037288D01*
X024920Y037342D01*
X024973Y037395D01*
X025080Y037395D01*
X025133Y037342D01*
X025003Y036282D02*
X024950Y036282D01*
X024896Y036229D01*
X024843Y036282D01*
X024790Y036282D01*
X024736Y036229D01*
X024736Y036122D01*
X024790Y036069D01*
X024896Y036176D02*
X024896Y036229D01*
X025003Y036282D02*
X025057Y036229D01*
X025057Y036122D01*
X025003Y036069D01*
X025057Y035807D02*
X024736Y035807D01*
X024736Y035701D02*
X024736Y035914D01*
X024950Y035701D02*
X025057Y035807D01*
X025003Y035546D02*
X024896Y035546D01*
X024843Y035492D01*
X024843Y035332D01*
X024736Y035332D02*
X025057Y035332D01*
X025057Y035492D01*
X025003Y035546D01*
X024843Y035439D02*
X024736Y035546D01*
X025795Y034370D02*
X025795Y031285D01*
X026157Y030923D01*
X026022Y030745D02*
X025916Y030745D01*
X025862Y030691D01*
X025862Y030638D01*
X025916Y030584D01*
X025862Y030531D01*
X025862Y030478D01*
X025916Y030424D01*
X026022Y030424D01*
X026076Y030478D01*
X025969Y030584D02*
X025916Y030584D01*
X026076Y030691D02*
X026022Y030745D01*
X026231Y030424D02*
X026444Y030424D01*
X026444Y030745D01*
X028606Y029408D02*
X028713Y029408D01*
X028660Y029408D02*
X028660Y029141D01*
X028713Y029087D01*
X028766Y029087D01*
X028820Y029141D01*
X028974Y029141D02*
X028974Y029354D01*
X029028Y029408D01*
X029188Y029408D01*
X029188Y029087D01*
X029028Y029087D01*
X028974Y029141D01*
X029343Y029087D02*
X029343Y029301D01*
X029450Y029408D01*
X029556Y029301D01*
X029556Y029087D01*
X029556Y029247D02*
X029343Y029247D01*
X031036Y027687D02*
X031036Y027474D01*
X031036Y027581D02*
X031357Y027581D01*
X031250Y027474D01*
X031250Y027319D02*
X031303Y027319D01*
X031357Y027266D01*
X031357Y027159D01*
X031303Y027106D01*
X031303Y026951D02*
X031357Y026897D01*
X031357Y026791D01*
X031303Y026737D01*
X031090Y026737D01*
X031036Y026791D01*
X031036Y026897D01*
X031090Y026951D01*
X031036Y027106D02*
X031250Y027319D01*
X031036Y027319D02*
X031036Y027106D01*
X028993Y026804D02*
X028940Y026858D01*
X028833Y026858D01*
X028779Y026804D01*
X028779Y026591D01*
X028833Y026537D01*
X028940Y026537D01*
X028993Y026591D01*
X028993Y026804D01*
X028886Y026644D02*
X028779Y026537D01*
X028625Y026591D02*
X028571Y026537D01*
X028465Y026537D01*
X028411Y026591D01*
X028411Y026644D01*
X028465Y026697D01*
X028518Y026697D01*
X028465Y026697D02*
X028411Y026751D01*
X028411Y026804D01*
X028465Y026858D01*
X028571Y026858D01*
X028625Y026804D01*
X023006Y029087D02*
X023006Y029301D01*
X022900Y029408D01*
X022793Y029301D01*
X022793Y029087D01*
X022638Y029087D02*
X022478Y029087D01*
X022424Y029141D01*
X022424Y029354D01*
X022478Y029408D01*
X022638Y029408D01*
X022638Y029087D01*
X022793Y029247D02*
X023006Y029247D01*
X022457Y029687D02*
X022457Y029847D01*
X022403Y029901D01*
X022296Y029901D01*
X022243Y029847D01*
X022243Y029687D01*
X022136Y029687D02*
X022457Y029687D01*
X022243Y029794D02*
X022136Y029901D01*
X022136Y030056D02*
X022136Y030269D01*
X022136Y030162D02*
X022457Y030162D01*
X022350Y030056D01*
X022350Y030424D02*
X022457Y030531D01*
X022136Y030531D01*
X022136Y030637D02*
X022136Y030424D01*
X021796Y030197D02*
X021696Y030097D01*
X021746Y030197D02*
X021396Y030197D01*
X021396Y029697D01*
X021320Y029408D02*
X021320Y029194D01*
X021426Y029087D01*
X021533Y029194D01*
X021533Y029408D01*
X021165Y029408D02*
X021165Y029087D01*
X021165Y029194D02*
X021005Y029194D01*
X020951Y029247D01*
X020951Y029354D01*
X021005Y029408D01*
X021165Y029408D01*
X020796Y029354D02*
X020743Y029408D01*
X020636Y029408D01*
X020583Y029354D01*
X020583Y029301D01*
X020796Y029087D01*
X020583Y029087D01*
X020635Y028508D02*
X020528Y028508D01*
X020474Y028454D01*
X020474Y028401D01*
X020528Y028347D01*
X020635Y028347D01*
X020688Y028401D01*
X020688Y028454D01*
X020635Y028508D01*
X020635Y028347D02*
X020688Y028294D01*
X020688Y028241D01*
X020635Y028187D01*
X020528Y028187D01*
X020474Y028241D01*
X020474Y028294D01*
X020528Y028347D01*
X020320Y028241D02*
X020266Y028187D01*
X020160Y028187D01*
X020106Y028241D01*
X020106Y028294D01*
X020160Y028347D01*
X020213Y028347D01*
X020160Y028347D02*
X020106Y028401D01*
X020106Y028454D01*
X020160Y028508D01*
X020266Y028508D01*
X020320Y028454D01*
X020843Y028454D02*
X020843Y028347D01*
X020896Y028294D01*
X021056Y028294D01*
X020950Y028294D02*
X020843Y028187D01*
X021056Y028187D02*
X021056Y028508D01*
X020896Y028508D01*
X020843Y028454D01*
X022110Y029141D02*
X022110Y029408D01*
X022163Y029408D02*
X022056Y029408D01*
X022110Y029141D02*
X022163Y029087D01*
X022216Y029087D01*
X022270Y029141D01*
X021796Y030197D02*
X021696Y030297D01*
X022677Y030920D02*
X023285Y031528D01*
X023285Y034640D01*
X023284Y034640D02*
X023282Y034675D01*
X023277Y034710D01*
X023268Y034744D01*
X023255Y034776D01*
X023239Y034807D01*
X023220Y034837D01*
X023198Y034864D01*
X023173Y034889D01*
X023146Y034911D01*
X023116Y034930D01*
X023085Y034946D01*
X023053Y034959D01*
X023019Y034968D01*
X022984Y034973D01*
X022949Y034975D01*
X022896Y036687D02*
X022843Y036741D01*
X022896Y036687D02*
X023003Y036687D01*
X023056Y036741D01*
X023056Y036954D01*
X023003Y037008D01*
X022896Y037008D01*
X022843Y036954D01*
X022688Y036954D02*
X022635Y037008D01*
X022528Y037008D01*
X022474Y036954D01*
X022474Y036901D01*
X022688Y036687D01*
X022474Y036687D01*
X022320Y036741D02*
X022106Y036954D01*
X022106Y036741D01*
X022160Y036687D01*
X022266Y036687D01*
X022320Y036741D01*
X022320Y036954D01*
X022266Y037008D01*
X022160Y037008D01*
X022106Y036954D01*
X022361Y037437D02*
X022575Y037437D01*
X022361Y037651D01*
X022361Y037704D01*
X022415Y037758D01*
X022521Y037758D01*
X022575Y037704D01*
X022836Y037758D02*
X022836Y037437D01*
X022943Y037437D02*
X022729Y037437D01*
X022943Y037651D02*
X022836Y037758D01*
X023098Y037704D02*
X023098Y037597D01*
X023151Y037544D01*
X023311Y037544D01*
X023205Y037544D02*
X023098Y037437D01*
X023311Y037437D02*
X023311Y037758D01*
X023151Y037758D01*
X023098Y037704D01*
X019916Y034975D02*
X019308Y034367D01*
X019308Y031282D01*
X019670Y030920D01*
X019535Y030741D02*
X019589Y030688D01*
X019535Y030741D02*
X019429Y030741D01*
X019375Y030688D01*
X019375Y030634D01*
X019589Y030421D01*
X019375Y030421D01*
X019744Y030421D02*
X019957Y030421D01*
X019957Y030741D01*
X019997Y032947D02*
X019999Y033019D01*
X020005Y033090D01*
X020015Y033161D01*
X020028Y033231D01*
X020046Y033300D01*
X020067Y033369D01*
X020092Y033436D01*
X020121Y033501D01*
X020154Y033565D01*
X020189Y033627D01*
X020229Y033687D01*
X020271Y033745D01*
X020316Y033800D01*
X020365Y033853D01*
X020416Y033903D01*
X020470Y033950D01*
X020527Y033994D01*
X020586Y034034D01*
X020646Y034072D01*
X020709Y034106D01*
X020774Y034137D01*
X020841Y034164D01*
X020908Y034187D01*
X020977Y034206D01*
X021047Y034222D01*
X021118Y034234D01*
X021189Y034242D01*
X021260Y034246D01*
X021332Y034246D01*
X021403Y034242D01*
X021474Y034234D01*
X021545Y034222D01*
X021615Y034206D01*
X021684Y034187D01*
X021751Y034164D01*
X021818Y034137D01*
X021883Y034106D01*
X021945Y034072D01*
X022006Y034034D01*
X022065Y033994D01*
X022122Y033950D01*
X022176Y033903D01*
X022227Y033853D01*
X022276Y033800D01*
X022321Y033745D01*
X022363Y033687D01*
X022403Y033627D01*
X022438Y033565D01*
X022471Y033501D01*
X022500Y033436D01*
X022525Y033369D01*
X022546Y033300D01*
X022564Y033231D01*
X022577Y033161D01*
X022587Y033090D01*
X022593Y033019D01*
X022595Y032947D01*
X022593Y032875D01*
X022587Y032804D01*
X022577Y032733D01*
X022564Y032663D01*
X022546Y032594D01*
X022525Y032525D01*
X022500Y032458D01*
X022471Y032393D01*
X022438Y032329D01*
X022403Y032267D01*
X022363Y032207D01*
X022321Y032149D01*
X022276Y032094D01*
X022227Y032041D01*
X022176Y031991D01*
X022122Y031944D01*
X022065Y031900D01*
X022006Y031860D01*
X021946Y031822D01*
X021883Y031788D01*
X021818Y031757D01*
X021751Y031730D01*
X021684Y031707D01*
X021615Y031688D01*
X021545Y031672D01*
X021474Y031660D01*
X021403Y031652D01*
X021332Y031648D01*
X021260Y031648D01*
X021189Y031652D01*
X021118Y031660D01*
X021047Y031672D01*
X020977Y031688D01*
X020908Y031707D01*
X020841Y031730D01*
X020774Y031757D01*
X020709Y031788D01*
X020646Y031822D01*
X020586Y031860D01*
X020527Y031900D01*
X020470Y031944D01*
X020416Y031991D01*
X020365Y032041D01*
X020316Y032094D01*
X020271Y032149D01*
X020229Y032207D01*
X020189Y032267D01*
X020154Y032329D01*
X020121Y032393D01*
X020092Y032458D01*
X020067Y032525D01*
X020046Y032594D01*
X020028Y032663D01*
X020015Y032733D01*
X020005Y032804D01*
X019999Y032875D01*
X019997Y032947D01*
X018557Y035282D02*
X018557Y035442D01*
X018503Y035496D01*
X018396Y035496D01*
X018343Y035442D01*
X018343Y035282D01*
X018236Y035282D02*
X018557Y035282D01*
X018343Y035389D02*
X018236Y035496D01*
X018236Y035651D02*
X018236Y035864D01*
X018236Y035757D02*
X018557Y035757D01*
X018450Y035651D01*
X018503Y036019D02*
X018557Y036072D01*
X018557Y036179D01*
X018503Y036232D01*
X018290Y036019D01*
X018236Y036072D01*
X018236Y036179D01*
X018290Y036232D01*
X018503Y036232D01*
X018503Y036019D02*
X018290Y036019D01*
X018420Y037125D02*
X018633Y037125D01*
X018420Y037338D01*
X018420Y037392D01*
X018473Y037445D01*
X018580Y037445D01*
X018633Y037392D01*
X018788Y037392D02*
X018788Y037285D01*
X018841Y037231D01*
X019001Y037231D01*
X019001Y037125D02*
X019001Y037445D01*
X018841Y037445D01*
X018788Y037392D01*
X019140Y037445D02*
X019247Y037445D01*
X019193Y037445D02*
X019193Y037125D01*
X019140Y037125D02*
X019247Y037125D01*
X016785Y034690D02*
X016785Y031578D01*
X016177Y030970D01*
X015903Y030519D02*
X015850Y030519D01*
X015796Y030466D01*
X015796Y030359D01*
X015850Y030306D01*
X015903Y030306D01*
X015957Y030359D01*
X015957Y030466D01*
X015903Y030519D01*
X015796Y030466D02*
X015743Y030519D01*
X015690Y030519D01*
X015636Y030466D01*
X015636Y030359D01*
X015690Y030306D01*
X015743Y030306D01*
X015796Y030359D01*
X015796Y030151D02*
X015743Y030097D01*
X015743Y029937D01*
X015636Y029937D02*
X015957Y029937D01*
X015957Y030097D01*
X015903Y030151D01*
X015796Y030151D01*
X015743Y030044D02*
X015636Y030151D01*
X015446Y030197D02*
X015346Y030097D01*
X015396Y030197D02*
X015046Y030197D01*
X015046Y029697D01*
X015083Y029458D02*
X015083Y029244D01*
X014976Y029137D01*
X014870Y029244D01*
X014870Y029458D01*
X014715Y029458D02*
X014715Y029137D01*
X014715Y029244D02*
X014555Y029244D01*
X014501Y029297D01*
X014501Y029404D01*
X014555Y029458D01*
X014715Y029458D01*
X014346Y029351D02*
X014240Y029458D01*
X014240Y029137D01*
X014346Y029137D02*
X014133Y029137D01*
X014035Y028208D02*
X013928Y028208D01*
X013874Y028154D01*
X013874Y028101D01*
X013928Y028047D01*
X014035Y028047D01*
X014088Y028101D01*
X014088Y028154D01*
X014035Y028208D01*
X014035Y028047D02*
X014088Y027994D01*
X014088Y027941D01*
X014035Y027887D01*
X013928Y027887D01*
X013874Y027941D01*
X013874Y027994D01*
X013928Y028047D01*
X013720Y028154D02*
X013666Y028208D01*
X013560Y028208D01*
X013506Y028154D01*
X013506Y028101D01*
X013720Y027887D01*
X013506Y027887D01*
X014243Y027887D02*
X014350Y027994D01*
X014296Y027994D02*
X014456Y027994D01*
X014456Y027887D02*
X014456Y028208D01*
X014296Y028208D01*
X014243Y028154D01*
X014243Y028047D01*
X014296Y027994D01*
X015618Y026858D02*
X015618Y026537D01*
X015725Y026537D02*
X015511Y026537D01*
X015725Y026751D02*
X015618Y026858D01*
X015879Y026804D02*
X015879Y026591D01*
X015933Y026537D01*
X016040Y026537D01*
X016093Y026591D01*
X016093Y026804D01*
X016040Y026858D01*
X015933Y026858D01*
X015879Y026804D01*
X015986Y026644D02*
X015879Y026537D01*
X018036Y026497D02*
X018036Y026391D01*
X018090Y026337D01*
X018303Y026337D01*
X018357Y026391D01*
X018357Y026497D01*
X018303Y026551D01*
X018250Y026706D02*
X018357Y026812D01*
X018036Y026812D01*
X018036Y026706D02*
X018036Y026919D01*
X018090Y027074D02*
X018036Y027127D01*
X018036Y027234D01*
X018090Y027287D01*
X018196Y027287D01*
X018250Y027234D01*
X018250Y027181D01*
X018196Y027074D01*
X018357Y027074D01*
X018357Y027287D01*
X018090Y026551D02*
X018036Y026497D01*
X016556Y029137D02*
X016556Y029351D01*
X016450Y029458D01*
X016343Y029351D01*
X016343Y029137D01*
X016188Y029137D02*
X016188Y029458D01*
X016028Y029458D01*
X015974Y029404D01*
X015974Y029191D01*
X016028Y029137D01*
X016188Y029137D01*
X016343Y029297D02*
X016556Y029297D01*
X015820Y029191D02*
X015766Y029137D01*
X015713Y029137D01*
X015660Y029191D01*
X015660Y029458D01*
X015713Y029458D02*
X015606Y029458D01*
X015446Y030197D02*
X015346Y030297D01*
X013457Y030471D02*
X013244Y030471D01*
X013089Y030471D02*
X012875Y030471D01*
X012982Y030471D02*
X012982Y030791D01*
X013089Y030684D01*
X013170Y030970D02*
X012808Y031332D01*
X012808Y034417D01*
X013416Y035025D01*
X012107Y035501D02*
X012107Y035661D01*
X012053Y035714D01*
X011946Y035714D01*
X011893Y035661D01*
X011893Y035501D01*
X011893Y035607D02*
X011786Y035714D01*
X011840Y035869D02*
X011786Y035922D01*
X011786Y036029D01*
X011840Y036082D01*
X011893Y036082D01*
X011946Y036029D01*
X011946Y035869D01*
X011840Y035869D01*
X011946Y035869D02*
X012053Y035976D01*
X012107Y036082D01*
X012107Y035501D02*
X011786Y035501D01*
X010256Y034108D02*
X010096Y034108D01*
X010043Y034054D01*
X010043Y033947D01*
X010096Y033894D01*
X010256Y033894D01*
X010150Y033894D02*
X010043Y033787D01*
X009888Y033841D02*
X009835Y033787D01*
X009728Y033787D01*
X009674Y033841D01*
X009674Y033947D01*
X009728Y034001D01*
X009781Y034001D01*
X009888Y033947D01*
X009888Y034108D01*
X009674Y034108D01*
X010256Y034108D02*
X010256Y033787D01*
X010924Y031936D02*
X011244Y031936D01*
X011244Y032042D02*
X011244Y031829D01*
X011137Y031674D02*
X010924Y031674D01*
X011084Y031674D02*
X011084Y031461D01*
X011137Y031461D02*
X011244Y031567D01*
X011137Y031674D01*
X011137Y031461D02*
X010924Y031461D01*
X010977Y031306D02*
X010924Y031252D01*
X010924Y031092D01*
X011244Y031092D01*
X011244Y031252D01*
X011191Y031306D01*
X011137Y031306D01*
X011084Y031252D01*
X011084Y031092D01*
X011084Y031252D02*
X011030Y031306D01*
X010977Y031306D01*
X010924Y030953D02*
X010924Y030847D01*
X010924Y030900D02*
X011244Y030900D01*
X011244Y030847D02*
X011244Y030953D01*
X009607Y029382D02*
X009553Y029382D01*
X009340Y029169D01*
X009286Y029169D01*
X009286Y029014D02*
X009393Y028907D01*
X009393Y028961D02*
X009393Y028801D01*
X009286Y028801D02*
X009607Y028801D01*
X009607Y028961D01*
X009553Y029014D01*
X009446Y029014D01*
X009393Y028961D01*
X009607Y029169D02*
X009607Y029382D01*
X013457Y030471D02*
X013457Y030791D01*
X013497Y032997D02*
X013499Y033069D01*
X013505Y033140D01*
X013515Y033211D01*
X013528Y033281D01*
X013546Y033350D01*
X013567Y033419D01*
X013592Y033486D01*
X013621Y033551D01*
X013654Y033615D01*
X013689Y033677D01*
X013729Y033737D01*
X013771Y033795D01*
X013816Y033850D01*
X013865Y033903D01*
X013916Y033953D01*
X013970Y034000D01*
X014027Y034044D01*
X014086Y034084D01*
X014146Y034122D01*
X014209Y034156D01*
X014274Y034187D01*
X014341Y034214D01*
X014408Y034237D01*
X014477Y034256D01*
X014547Y034272D01*
X014618Y034284D01*
X014689Y034292D01*
X014760Y034296D01*
X014832Y034296D01*
X014903Y034292D01*
X014974Y034284D01*
X015045Y034272D01*
X015115Y034256D01*
X015184Y034237D01*
X015251Y034214D01*
X015318Y034187D01*
X015383Y034156D01*
X015445Y034122D01*
X015506Y034084D01*
X015565Y034044D01*
X015622Y034000D01*
X015676Y033953D01*
X015727Y033903D01*
X015776Y033850D01*
X015821Y033795D01*
X015863Y033737D01*
X015903Y033677D01*
X015938Y033615D01*
X015971Y033551D01*
X016000Y033486D01*
X016025Y033419D01*
X016046Y033350D01*
X016064Y033281D01*
X016077Y033211D01*
X016087Y033140D01*
X016093Y033069D01*
X016095Y032997D01*
X016093Y032925D01*
X016087Y032854D01*
X016077Y032783D01*
X016064Y032713D01*
X016046Y032644D01*
X016025Y032575D01*
X016000Y032508D01*
X015971Y032443D01*
X015938Y032379D01*
X015903Y032317D01*
X015863Y032257D01*
X015821Y032199D01*
X015776Y032144D01*
X015727Y032091D01*
X015676Y032041D01*
X015622Y031994D01*
X015565Y031950D01*
X015506Y031910D01*
X015446Y031872D01*
X015383Y031838D01*
X015318Y031807D01*
X015251Y031780D01*
X015184Y031757D01*
X015115Y031738D01*
X015045Y031722D01*
X014974Y031710D01*
X014903Y031702D01*
X014832Y031698D01*
X014760Y031698D01*
X014689Y031702D01*
X014618Y031710D01*
X014547Y031722D01*
X014477Y031738D01*
X014408Y031757D01*
X014341Y031780D01*
X014274Y031807D01*
X014209Y031838D01*
X014146Y031872D01*
X014086Y031910D01*
X014027Y031950D01*
X013970Y031994D01*
X013916Y032041D01*
X013865Y032091D01*
X013816Y032144D01*
X013771Y032199D01*
X013729Y032257D01*
X013689Y032317D01*
X013654Y032379D01*
X013621Y032443D01*
X013592Y032508D01*
X013567Y032575D01*
X013546Y032644D01*
X013528Y032713D01*
X013515Y032783D01*
X013505Y032854D01*
X013499Y032925D01*
X013497Y032997D01*
X016449Y035025D02*
X016484Y035023D01*
X016519Y035018D01*
X016553Y035009D01*
X016585Y034996D01*
X016616Y034980D01*
X016646Y034961D01*
X016673Y034939D01*
X016698Y034914D01*
X016720Y034887D01*
X016739Y034857D01*
X016755Y034826D01*
X016768Y034794D01*
X016777Y034760D01*
X016782Y034725D01*
X016784Y034690D01*
X016453Y036587D02*
X016346Y036587D01*
X016293Y036641D01*
X016138Y036587D02*
X015924Y036587D01*
X016031Y036587D02*
X016031Y036908D01*
X016138Y036801D01*
X016293Y036854D02*
X016346Y036908D01*
X016453Y036908D01*
X016506Y036854D01*
X016506Y036641D01*
X016453Y036587D01*
X015770Y036587D02*
X015770Y036641D01*
X015556Y036854D01*
X015556Y036908D01*
X015770Y036908D01*
X015093Y037887D02*
X015093Y038208D01*
X014933Y038208D01*
X014879Y038154D01*
X014879Y038047D01*
X014933Y037994D01*
X015093Y037994D01*
X014986Y037994D02*
X014879Y037887D01*
X014725Y037941D02*
X014671Y037887D01*
X014565Y037887D01*
X014511Y037941D01*
X014511Y038154D01*
X014565Y038208D01*
X014671Y038208D01*
X014725Y038154D01*
X014725Y038101D01*
X014671Y038047D01*
X014511Y038047D01*
X012747Y037445D02*
X012640Y037445D01*
X012693Y037445D02*
X012693Y037125D01*
X012640Y037125D02*
X012747Y037125D01*
X012501Y037125D02*
X012501Y037445D01*
X012341Y037445D01*
X012288Y037392D01*
X012288Y037285D01*
X012341Y037231D01*
X012501Y037231D01*
X012133Y037125D02*
X011920Y037125D01*
X012026Y037125D02*
X012026Y037445D01*
X012133Y037338D01*
X022165Y026908D02*
X022271Y026908D01*
X022325Y026854D01*
X022479Y026854D02*
X022533Y026908D01*
X022640Y026908D01*
X022693Y026854D01*
X022693Y026641D01*
X022640Y026587D01*
X022533Y026587D01*
X022479Y026641D01*
X022479Y026854D01*
X022586Y026694D02*
X022479Y026587D01*
X022325Y026587D02*
X022111Y026801D01*
X022111Y026854D01*
X022165Y026908D01*
X022111Y026587D02*
X022325Y026587D01*
X026484Y032951D02*
X026486Y033023D01*
X026492Y033094D01*
X026502Y033165D01*
X026515Y033235D01*
X026533Y033304D01*
X026554Y033373D01*
X026579Y033440D01*
X026608Y033505D01*
X026641Y033569D01*
X026676Y033631D01*
X026716Y033691D01*
X026758Y033749D01*
X026803Y033804D01*
X026852Y033857D01*
X026903Y033907D01*
X026957Y033954D01*
X027014Y033998D01*
X027073Y034038D01*
X027133Y034076D01*
X027196Y034110D01*
X027261Y034141D01*
X027328Y034168D01*
X027395Y034191D01*
X027464Y034210D01*
X027534Y034226D01*
X027605Y034238D01*
X027676Y034246D01*
X027747Y034250D01*
X027819Y034250D01*
X027890Y034246D01*
X027961Y034238D01*
X028032Y034226D01*
X028102Y034210D01*
X028171Y034191D01*
X028238Y034168D01*
X028305Y034141D01*
X028370Y034110D01*
X028432Y034076D01*
X028493Y034038D01*
X028552Y033998D01*
X028609Y033954D01*
X028663Y033907D01*
X028714Y033857D01*
X028763Y033804D01*
X028808Y033749D01*
X028850Y033691D01*
X028890Y033631D01*
X028925Y033569D01*
X028958Y033505D01*
X028987Y033440D01*
X029012Y033373D01*
X029033Y033304D01*
X029051Y033235D01*
X029064Y033165D01*
X029074Y033094D01*
X029080Y033023D01*
X029082Y032951D01*
X029080Y032879D01*
X029074Y032808D01*
X029064Y032737D01*
X029051Y032667D01*
X029033Y032598D01*
X029012Y032529D01*
X028987Y032462D01*
X028958Y032397D01*
X028925Y032333D01*
X028890Y032271D01*
X028850Y032211D01*
X028808Y032153D01*
X028763Y032098D01*
X028714Y032045D01*
X028663Y031995D01*
X028609Y031948D01*
X028552Y031904D01*
X028493Y031864D01*
X028433Y031826D01*
X028370Y031792D01*
X028305Y031761D01*
X028238Y031734D01*
X028171Y031711D01*
X028102Y031692D01*
X028032Y031676D01*
X027961Y031664D01*
X027890Y031656D01*
X027819Y031652D01*
X027747Y031652D01*
X027676Y031656D01*
X027605Y031664D01*
X027534Y031676D01*
X027464Y031692D01*
X027395Y031711D01*
X027328Y031734D01*
X027261Y031761D01*
X027196Y031792D01*
X027133Y031826D01*
X027073Y031864D01*
X027014Y031904D01*
X026957Y031948D01*
X026903Y031995D01*
X026852Y032045D01*
X026803Y032098D01*
X026758Y032153D01*
X026716Y032211D01*
X026676Y032271D01*
X026641Y032333D01*
X026608Y032397D01*
X026579Y032462D01*
X026554Y032529D01*
X026533Y032598D01*
X026515Y032667D01*
X026502Y032737D01*
X026492Y032808D01*
X026486Y032879D01*
X026484Y032951D01*
X025795Y034370D02*
X026403Y034978D01*
X036634Y026899D02*
X036687Y026899D01*
X036687Y026685D01*
X021160Y017051D02*
X021160Y016975D01*
X021122Y016937D01*
X021047Y016937D01*
X020971Y017013D01*
X020896Y017013D01*
X020858Y016975D01*
X020858Y016900D01*
X020933Y016824D01*
X021009Y016824D01*
X021160Y017051D02*
X021084Y017126D01*
X021009Y017126D01*
X020937Y017273D02*
X020786Y017424D01*
X020862Y017349D02*
X020635Y017122D01*
X020450Y017307D02*
X020677Y017534D01*
X020526Y017534D01*
X020526Y017685D01*
X020299Y017458D01*
X020228Y017605D02*
X020152Y017605D01*
X020077Y017681D01*
X020077Y017756D01*
X020114Y017794D01*
X020190Y017794D01*
X020228Y017756D01*
X020190Y017794D02*
X020190Y017870D01*
X020228Y017907D01*
X020303Y017907D01*
X020379Y017832D01*
X020379Y017756D01*
X020118Y018017D02*
X020118Y018092D01*
X020043Y018168D01*
X019967Y018168D01*
X019929Y018130D01*
X019929Y017828D01*
X019778Y017979D01*
X015158Y013108D02*
X015211Y013054D01*
X015211Y012841D01*
X015158Y012787D01*
X015051Y012787D01*
X014998Y012841D01*
X014843Y012841D02*
X014790Y012787D01*
X014683Y012787D01*
X014629Y012841D01*
X014629Y012894D01*
X014683Y012947D01*
X014736Y012947D01*
X014683Y012947D02*
X014629Y013001D01*
X014629Y013054D01*
X014683Y013108D01*
X014790Y013108D01*
X014843Y013054D01*
X014998Y013054D02*
X015051Y013108D01*
X015158Y013108D01*
X014475Y013054D02*
X014475Y013001D01*
X014421Y012947D01*
X014261Y012947D01*
X014261Y012841D02*
X014261Y013054D01*
X014315Y013108D01*
X014421Y013108D01*
X014475Y013054D01*
X014475Y012841D02*
X014421Y012787D01*
X014315Y012787D01*
X014261Y012841D01*
X015008Y012120D02*
X015008Y011906D01*
X015222Y012120D01*
X015275Y012120D01*
X015329Y012066D01*
X015329Y011960D01*
X015275Y011906D01*
X015008Y011752D02*
X015008Y011538D01*
X015329Y011538D01*
X015329Y011383D02*
X015329Y011170D01*
X015008Y011170D01*
X015008Y011383D01*
X015169Y011276D02*
X015169Y011170D01*
X015275Y011015D02*
X015329Y010962D01*
X015329Y010855D01*
X015275Y010801D01*
X015062Y010801D01*
X015008Y010855D01*
X015008Y010962D01*
X015062Y011015D01*
X012261Y012841D02*
X012208Y012787D01*
X012101Y012787D01*
X012048Y012841D01*
X011893Y012947D02*
X011679Y012947D01*
X011525Y013001D02*
X011418Y013108D01*
X011418Y012787D01*
X011525Y012787D02*
X011311Y012787D01*
X011733Y012787D02*
X011733Y013108D01*
X011893Y012947D01*
X012048Y013054D02*
X012101Y013108D01*
X012208Y013108D01*
X012261Y013054D01*
X012261Y012841D01*
X012220Y016937D02*
X012220Y016991D01*
X012006Y017204D01*
X012006Y017258D01*
X012220Y017258D01*
X012374Y017204D02*
X012428Y017258D01*
X012535Y017258D01*
X012588Y017204D01*
X012743Y017204D02*
X012796Y017258D01*
X012903Y017258D01*
X012956Y017204D01*
X012956Y016991D01*
X012903Y016937D01*
X012796Y016937D01*
X012743Y016991D01*
X012588Y016937D02*
X012374Y017151D01*
X012374Y017204D01*
X012374Y016937D02*
X012588Y016937D01*
X012588Y020187D02*
X012374Y020401D01*
X012374Y020454D01*
X012428Y020508D01*
X012535Y020508D01*
X012588Y020454D01*
X012743Y020454D02*
X012796Y020508D01*
X012903Y020508D01*
X012956Y020454D01*
X012956Y020241D01*
X012903Y020187D01*
X012796Y020187D01*
X012743Y020241D01*
X012588Y020187D02*
X012374Y020187D01*
X012220Y020241D02*
X012166Y020187D01*
X012060Y020187D01*
X012006Y020241D01*
X012006Y020294D01*
X012060Y020347D01*
X012220Y020347D01*
X012220Y020241D01*
X012220Y020347D02*
X012113Y020454D01*
X012006Y020508D01*
X012060Y023437D02*
X012166Y023437D01*
X012220Y023491D01*
X012220Y023597D02*
X012113Y023651D01*
X012060Y023651D01*
X012006Y023597D01*
X012006Y023491D01*
X012060Y023437D01*
X012220Y023597D02*
X012220Y023758D01*
X012006Y023758D01*
X012374Y023704D02*
X012428Y023758D01*
X012535Y023758D01*
X012588Y023704D01*
X012743Y023704D02*
X012796Y023758D01*
X012903Y023758D01*
X012956Y023704D01*
X012956Y023491D01*
X012903Y023437D01*
X012796Y023437D01*
X012743Y023491D01*
X012588Y023437D02*
X012374Y023651D01*
X012374Y023704D01*
X012374Y023437D02*
X012588Y023437D01*
D11*
X028496Y038947D02*
X028496Y039197D01*
X028546Y039247D01*
D12*
X025972Y034801D03*
X023107Y031097D03*
X019485Y034798D03*
X016607Y031147D03*
X012985Y034848D03*
X029594Y031100D03*
D13*
X027051Y036607D02*
X026342Y036607D01*
X026342Y037788D01*
X027051Y037788D01*
X027051Y036607D01*
X020551Y036607D02*
X019842Y036607D01*
X019842Y037788D01*
X020551Y037788D01*
X020551Y036607D01*
X014051Y036657D02*
X013342Y036657D01*
X013342Y037838D01*
X014051Y037838D01*
X014051Y036657D01*
X010351Y031988D02*
X009642Y031988D01*
X009642Y030807D01*
X010351Y030807D01*
X010351Y031988D01*
X020425Y019099D02*
X020425Y018821D01*
X024044Y015202D01*
X024323Y015202D01*
X027942Y018821D01*
X027942Y019099D01*
X024323Y022718D01*
X024044Y022718D01*
X020425Y019099D01*
X024072Y023080D02*
X024074Y023100D01*
X024079Y023120D01*
X024089Y023138D01*
X024101Y023155D01*
X024116Y023169D01*
X024134Y023179D01*
X024153Y023187D01*
X024173Y023191D01*
X024193Y023191D01*
X024213Y023187D01*
X024232Y023179D01*
X024250Y023169D01*
X024265Y023155D01*
X024277Y023138D01*
X024287Y023120D01*
X024292Y023100D01*
X024294Y023080D01*
X024292Y023060D01*
X024287Y023040D01*
X024277Y023022D01*
X024265Y023005D01*
X024250Y022991D01*
X024232Y022981D01*
X024213Y022973D01*
X024193Y022969D01*
X024173Y022969D01*
X024153Y022973D01*
X024134Y022981D01*
X024116Y022991D01*
X024101Y023005D01*
X024089Y023022D01*
X024079Y023040D01*
X024074Y023060D01*
X024072Y023080D01*
X027731Y024599D02*
X027733Y024605D01*
X027737Y024609D01*
X027744Y024610D01*
X027749Y024607D01*
X027753Y024602D01*
X027753Y024596D01*
X027749Y024591D01*
X027744Y024588D01*
X027737Y024589D01*
X027733Y024593D01*
X027731Y024599D01*
X027685Y024599D02*
X027687Y024614D01*
X027693Y024627D01*
X027702Y024639D01*
X027713Y024648D01*
X027727Y024654D01*
X027742Y024656D01*
X027757Y024654D01*
X027770Y024648D01*
X027782Y024639D01*
X027791Y024628D01*
X027797Y024614D01*
X027799Y024599D01*
X027797Y024584D01*
X027791Y024571D01*
X027782Y024559D01*
X027771Y024550D01*
X027757Y024544D01*
X027742Y024542D01*
X027727Y024544D01*
X027714Y024550D01*
X027702Y024559D01*
X027693Y024570D01*
X027687Y024584D01*
X027685Y024599D01*
X027638Y024599D02*
X027640Y024619D01*
X027645Y024638D01*
X027655Y024655D01*
X027667Y024671D01*
X027682Y024684D01*
X027699Y024694D01*
X027717Y024700D01*
X027737Y024703D01*
X027757Y024702D01*
X027776Y024697D01*
X027794Y024689D01*
X027810Y024678D01*
X027824Y024663D01*
X027834Y024647D01*
X027842Y024628D01*
X027846Y024609D01*
X027846Y024589D01*
X027842Y024570D01*
X027834Y024551D01*
X027824Y024535D01*
X027810Y024520D01*
X027794Y024509D01*
X027776Y024501D01*
X027757Y024496D01*
X027737Y024495D01*
X027717Y024498D01*
X027699Y024504D01*
X027682Y024514D01*
X027667Y024527D01*
X027655Y024543D01*
X027645Y024560D01*
X027640Y024579D01*
X027638Y024599D01*
X037287Y023710D02*
X037289Y023728D01*
X037295Y023744D01*
X037304Y023759D01*
X037317Y023772D01*
X037332Y023781D01*
X037348Y023787D01*
X037366Y023789D01*
X037384Y023787D01*
X037400Y023781D01*
X037415Y023772D01*
X037428Y023759D01*
X037437Y023744D01*
X037443Y023728D01*
X037445Y023710D01*
X037443Y023692D01*
X037437Y023676D01*
X037428Y023661D01*
X037415Y023648D01*
X037400Y023639D01*
X037384Y023633D01*
X037366Y023631D01*
X037348Y023633D01*
X037332Y023639D01*
X037317Y023648D01*
X037304Y023661D01*
X037295Y023676D01*
X037289Y023692D01*
X037287Y023710D01*
X037445Y023513D02*
X038548Y023513D01*
X038548Y021781D01*
X037445Y021781D01*
X037445Y023513D01*
X037445Y025281D02*
X038548Y025281D01*
X038548Y027013D01*
X037445Y027013D01*
X037445Y025281D01*
X037287Y027210D02*
X037289Y027228D01*
X037295Y027244D01*
X037304Y027259D01*
X037317Y027272D01*
X037332Y027281D01*
X037348Y027287D01*
X037366Y027289D01*
X037384Y027287D01*
X037400Y027281D01*
X037415Y027272D01*
X037428Y027259D01*
X037437Y027244D01*
X037443Y027228D01*
X037445Y027210D01*
X037443Y027192D01*
X037437Y027176D01*
X037428Y027161D01*
X037415Y027148D01*
X037400Y027139D01*
X037384Y027133D01*
X037366Y027131D01*
X037348Y027133D01*
X037332Y027139D01*
X037317Y027148D01*
X037304Y027161D01*
X037295Y027176D01*
X037289Y027192D01*
X037287Y027210D01*
X037445Y028781D02*
X038548Y028781D01*
X038548Y030513D01*
X037445Y030513D01*
X037445Y028781D01*
X037287Y030710D02*
X037289Y030728D01*
X037295Y030744D01*
X037304Y030759D01*
X037317Y030772D01*
X037332Y030781D01*
X037348Y030787D01*
X037366Y030789D01*
X037384Y030787D01*
X037400Y030781D01*
X037415Y030772D01*
X037428Y030759D01*
X037437Y030744D01*
X037443Y030728D01*
X037445Y030710D01*
X037443Y030692D01*
X037437Y030676D01*
X037428Y030661D01*
X037415Y030648D01*
X037400Y030639D01*
X037384Y030633D01*
X037366Y030631D01*
X037348Y030633D01*
X037332Y030639D01*
X037317Y030648D01*
X037304Y030661D01*
X037295Y030676D01*
X037289Y030692D01*
X037287Y030710D01*
X037445Y032281D02*
X038548Y032281D01*
X038548Y034013D01*
X037445Y034013D01*
X037445Y032281D01*
X037287Y034210D02*
X037289Y034228D01*
X037295Y034244D01*
X037304Y034259D01*
X037317Y034272D01*
X037332Y034281D01*
X037348Y034287D01*
X037366Y034289D01*
X037384Y034287D01*
X037400Y034281D01*
X037415Y034272D01*
X037428Y034259D01*
X037437Y034244D01*
X037443Y034228D01*
X037445Y034210D01*
X037443Y034192D01*
X037437Y034176D01*
X037428Y034161D01*
X037415Y034148D01*
X037400Y034139D01*
X037384Y034133D01*
X037366Y034131D01*
X037348Y034133D01*
X037332Y034139D01*
X037317Y034148D01*
X037304Y034161D01*
X037295Y034176D01*
X037289Y034192D01*
X037287Y034210D01*
X037445Y035781D02*
X038548Y035781D01*
X038548Y037513D01*
X037445Y037513D01*
X037445Y035781D01*
X037287Y037710D02*
X037289Y037728D01*
X037295Y037744D01*
X037304Y037759D01*
X037317Y037772D01*
X037332Y037781D01*
X037348Y037787D01*
X037366Y037789D01*
X037384Y037787D01*
X037400Y037781D01*
X037415Y037772D01*
X037428Y037759D01*
X037437Y037744D01*
X037443Y037728D01*
X037445Y037710D01*
X037443Y037692D01*
X037437Y037676D01*
X037428Y037661D01*
X037415Y037648D01*
X037400Y037639D01*
X037384Y037633D01*
X037366Y037631D01*
X037348Y037633D01*
X037332Y037639D01*
X037317Y037648D01*
X037304Y037661D01*
X037295Y037676D01*
X037289Y037692D01*
X037287Y037710D01*
X040287Y037710D02*
X040289Y037728D01*
X040295Y037744D01*
X040304Y037759D01*
X040317Y037772D01*
X040332Y037781D01*
X040348Y037787D01*
X040366Y037789D01*
X040384Y037787D01*
X040400Y037781D01*
X040415Y037772D01*
X040428Y037759D01*
X040437Y037744D01*
X040443Y037728D01*
X040445Y037710D01*
X040443Y037692D01*
X040437Y037676D01*
X040428Y037661D01*
X040415Y037648D01*
X040400Y037639D01*
X040384Y037633D01*
X040366Y037631D01*
X040348Y037633D01*
X040332Y037639D01*
X040317Y037648D01*
X040304Y037661D01*
X040295Y037676D01*
X040289Y037692D01*
X040287Y037710D01*
X040445Y037513D02*
X041548Y037513D01*
X041548Y035781D01*
X040445Y035781D01*
X040445Y037513D01*
X040287Y034210D02*
X040289Y034228D01*
X040295Y034244D01*
X040304Y034259D01*
X040317Y034272D01*
X040332Y034281D01*
X040348Y034287D01*
X040366Y034289D01*
X040384Y034287D01*
X040400Y034281D01*
X040415Y034272D01*
X040428Y034259D01*
X040437Y034244D01*
X040443Y034228D01*
X040445Y034210D01*
X040443Y034192D01*
X040437Y034176D01*
X040428Y034161D01*
X040415Y034148D01*
X040400Y034139D01*
X040384Y034133D01*
X040366Y034131D01*
X040348Y034133D01*
X040332Y034139D01*
X040317Y034148D01*
X040304Y034161D01*
X040295Y034176D01*
X040289Y034192D01*
X040287Y034210D01*
X040445Y034013D02*
X041548Y034013D01*
X041548Y032281D01*
X040445Y032281D01*
X040445Y034013D01*
X040287Y030710D02*
X040289Y030728D01*
X040295Y030744D01*
X040304Y030759D01*
X040317Y030772D01*
X040332Y030781D01*
X040348Y030787D01*
X040366Y030789D01*
X040384Y030787D01*
X040400Y030781D01*
X040415Y030772D01*
X040428Y030759D01*
X040437Y030744D01*
X040443Y030728D01*
X040445Y030710D01*
X040443Y030692D01*
X040437Y030676D01*
X040428Y030661D01*
X040415Y030648D01*
X040400Y030639D01*
X040384Y030633D01*
X040366Y030631D01*
X040348Y030633D01*
X040332Y030639D01*
X040317Y030648D01*
X040304Y030661D01*
X040295Y030676D01*
X040289Y030692D01*
X040287Y030710D01*
X040445Y030513D02*
X041548Y030513D01*
X041548Y028781D01*
X040445Y028781D01*
X040445Y030513D01*
X040287Y027210D02*
X040289Y027228D01*
X040295Y027244D01*
X040304Y027259D01*
X040317Y027272D01*
X040332Y027281D01*
X040348Y027287D01*
X040366Y027289D01*
X040384Y027287D01*
X040400Y027281D01*
X040415Y027272D01*
X040428Y027259D01*
X040437Y027244D01*
X040443Y027228D01*
X040445Y027210D01*
X040443Y027192D01*
X040437Y027176D01*
X040428Y027161D01*
X040415Y027148D01*
X040400Y027139D01*
X040384Y027133D01*
X040366Y027131D01*
X040348Y027133D01*
X040332Y027139D01*
X040317Y027148D01*
X040304Y027161D01*
X040295Y027176D01*
X040289Y027192D01*
X040287Y027210D01*
X040445Y027013D02*
X041548Y027013D01*
X041548Y025281D01*
X040445Y025281D01*
X040445Y027013D01*
X040287Y023710D02*
X040289Y023728D01*
X040295Y023744D01*
X040304Y023759D01*
X040317Y023772D01*
X040332Y023781D01*
X040348Y023787D01*
X040366Y023789D01*
X040384Y023787D01*
X040400Y023781D01*
X040415Y023772D01*
X040428Y023759D01*
X040437Y023744D01*
X040443Y023728D01*
X040445Y023710D01*
X040443Y023692D01*
X040437Y023676D01*
X040428Y023661D01*
X040415Y023648D01*
X040400Y023639D01*
X040384Y023633D01*
X040366Y023631D01*
X040348Y023633D01*
X040332Y023639D01*
X040317Y023648D01*
X040304Y023661D01*
X040295Y023676D01*
X040289Y023692D01*
X040287Y023710D01*
X040445Y023513D02*
X041548Y023513D01*
X041548Y021781D01*
X040445Y021781D01*
X040445Y023513D01*
X014334Y012578D02*
X014334Y010216D01*
X014137Y010216D01*
X014137Y012578D01*
X014334Y012578D01*
X014137Y012578D02*
X012759Y012578D01*
X012759Y010216D01*
X014137Y010216D01*
X014087Y009328D02*
X014087Y006966D01*
X012709Y006966D01*
X012709Y009328D01*
X014087Y009328D01*
X014284Y009328D01*
X014284Y006966D01*
X014087Y006966D01*
X011284Y006966D02*
X011087Y006966D01*
X011087Y009328D01*
X011284Y009328D01*
X011284Y006966D01*
X011087Y006966D02*
X009709Y006966D01*
X009709Y009328D01*
X011087Y009328D01*
X011087Y010216D02*
X011087Y012578D01*
X011284Y012578D01*
X011284Y010216D01*
X011087Y010216D01*
X009709Y010216D01*
X009709Y012578D01*
X011087Y012578D01*
D14*
X018553Y010020D02*
X018553Y008609D01*
X018643Y009620D02*
X018645Y009649D01*
X018651Y009677D01*
X018660Y009704D01*
X018674Y009729D01*
X018690Y009753D01*
X018710Y009773D01*
X018732Y009792D01*
X018756Y009806D01*
X018783Y009818D01*
X018810Y009826D01*
X018839Y009830D01*
X018867Y009830D01*
X018896Y009826D01*
X018923Y009818D01*
X018950Y009806D01*
X018974Y009792D01*
X018996Y009773D01*
X019016Y009753D01*
X019032Y009729D01*
X019046Y009704D01*
X019055Y009677D01*
X019061Y009649D01*
X019063Y009620D01*
X019061Y009591D01*
X019055Y009563D01*
X019046Y009536D01*
X019032Y009511D01*
X019016Y009487D01*
X018996Y009467D01*
X018974Y009448D01*
X018950Y009434D01*
X018923Y009422D01*
X018896Y009414D01*
X018867Y009410D01*
X018839Y009410D01*
X018810Y009414D01*
X018783Y009422D01*
X018756Y009434D01*
X018732Y009448D01*
X018710Y009467D01*
X018690Y009487D01*
X018674Y009511D01*
X018660Y009536D01*
X018651Y009563D01*
X018645Y009591D01*
X018643Y009620D01*
X021913Y010020D02*
X021913Y008609D01*
X036559Y008499D02*
X036559Y008223D01*
X036560Y008223D02*
X036559Y008205D01*
X036563Y008188D01*
X036569Y008172D01*
X036579Y008157D01*
X036591Y008145D01*
X036605Y008135D01*
X036621Y008128D01*
X036638Y008125D01*
X036953Y008125D01*
X036953Y008597D01*
X036638Y008597D01*
X036621Y008594D01*
X036605Y008587D01*
X036591Y008577D01*
X036579Y008565D01*
X036569Y008550D01*
X036563Y008534D01*
X036559Y008517D01*
X036560Y008499D01*
X036953Y008597D02*
X037268Y008597D01*
X037285Y008594D01*
X037301Y008587D01*
X037315Y008577D01*
X037327Y008565D01*
X037337Y008550D01*
X037343Y008534D01*
X037347Y008517D01*
X037346Y008499D01*
X037346Y008204D01*
X037347Y008204D02*
X037345Y008189D01*
X037341Y008174D01*
X037334Y008160D01*
X037324Y008148D01*
X037312Y008138D01*
X037298Y008131D01*
X037283Y008127D01*
X037268Y008125D01*
X036953Y008125D01*
X029256Y027487D02*
X028136Y027487D01*
X028136Y028007D01*
X029256Y028007D01*
X029256Y027487D01*
X022906Y027537D02*
X022906Y028057D01*
X021786Y028057D01*
X021786Y027537D01*
X022906Y027537D01*
X016406Y027487D02*
X016406Y028007D01*
X015286Y028007D01*
X015286Y027487D01*
X016406Y027487D01*
X030283Y038807D02*
X031464Y038807D01*
X031464Y038925D01*
X031464Y039870D02*
X031464Y039988D01*
X030283Y039988D01*
X030283Y039870D01*
X030283Y038925D02*
X030283Y038807D01*
X031504Y039948D02*
X031506Y039960D01*
X031511Y039971D01*
X031520Y039980D01*
X031531Y039985D01*
X031543Y039987D01*
X031555Y039985D01*
X031566Y039980D01*
X031575Y039971D01*
X031580Y039960D01*
X031582Y039948D01*
X031580Y039936D01*
X031575Y039925D01*
X031566Y039916D01*
X031555Y039911D01*
X031543Y039909D01*
X031531Y039911D01*
X031520Y039916D01*
X031511Y039925D01*
X031506Y039936D01*
X031504Y039948D01*
D15*
X038059Y019006D03*
X038559Y019006D03*
X039059Y019006D03*
X039559Y019006D03*
X039559Y016998D03*
X039059Y016998D03*
X038559Y016998D03*
X038059Y016998D03*
M02*
