G75*
G70*
%OFA0B0*%
%FSLAX24Y24*%
%IPPOS*%
%LPD*%
%AMOC8*
5,1,8,0,0,1.08239X$1,22.5*
%
%ADD10C,0.1419*%
%ADD11R,0.0631X0.0946*%
%ADD12R,0.0631X0.1261*%
%ADD13OC8,0.1080*%
%ADD14OC8,0.0640*%
%ADD15R,0.0710X0.1143*%
%ADD16C,0.0789*%
%ADD17C,0.1025*%
%ADD18R,0.0513X0.0474*%
%ADD19R,0.0474X0.0513*%
%ADD20C,0.0440*%
%ADD21OC8,0.0552*%
%ADD22C,0.0671*%
%ADD23R,0.0330X0.0330*%
%ADD24R,0.0315X0.0157*%
%ADD25R,0.0671X0.0592*%
%ADD26R,0.0592X0.0671*%
%ADD27R,0.1064X0.0867*%
%ADD28R,0.1379X0.0867*%
%ADD29R,0.1300X0.0277*%
%ADD30C,0.0434*%
%ADD31C,0.0820*%
%ADD32R,0.0780X0.0780*%
%ADD33OC8,0.0780*%
%ADD34R,0.0320X0.0950*%
%ADD35R,0.0316X0.0671*%
%ADD36R,0.0671X0.0316*%
%ADD37R,0.0316X0.0789*%
%ADD38R,0.0552X0.0789*%
%ADD39R,0.0940X0.0940*%
%ADD40C,0.0730*%
%ADD41R,0.0640X0.0640*%
%ADD42R,0.0552X0.0552*%
%ADD43R,0.0631X0.0474*%
%ADD44R,0.0513X0.0671*%
D10*
X005677Y003078D03*
X042685Y003078D03*
X042685Y040086D03*
X005677Y040086D03*
D11*
X009596Y037577D03*
X009596Y036317D03*
D12*
X017246Y035752D03*
X017246Y037642D03*
X023746Y037592D03*
X023746Y035702D03*
X030246Y035702D03*
X030246Y037592D03*
D13*
X030246Y034272D03*
X030246Y031772D03*
X030246Y030522D03*
X030246Y029272D03*
X030246Y025522D03*
X025246Y025522D03*
X023746Y025522D03*
X023746Y029272D03*
X023746Y030522D03*
X023746Y031772D03*
X023746Y034272D03*
X025246Y034272D03*
X018746Y034272D03*
X017246Y034272D03*
X017246Y031772D03*
X017246Y030522D03*
X017246Y029272D03*
X017246Y025522D03*
X018746Y025522D03*
X012246Y025522D03*
X012246Y034272D03*
D14*
X011746Y021397D03*
X010746Y021397D03*
X012746Y021397D03*
X012746Y018147D03*
X011746Y018147D03*
X010746Y018147D03*
X008179Y017960D03*
X008179Y016976D03*
X008179Y015992D03*
X010746Y014897D03*
X011746Y014897D03*
X012746Y014897D03*
X008179Y018944D03*
X008179Y019929D03*
X035245Y039101D03*
X036032Y039101D03*
X036032Y040573D03*
X035245Y040573D03*
D15*
X010298Y025347D03*
X009195Y025347D03*
D16*
X008101Y025397D02*
X007392Y025397D01*
X007392Y023897D02*
X008101Y023897D01*
X008101Y031397D02*
X007392Y031397D01*
X007392Y032897D02*
X008101Y032897D01*
X008101Y034397D02*
X007392Y034397D01*
X007392Y035897D02*
X008101Y035897D01*
D17*
X007392Y037590D03*
X007392Y029704D03*
X007392Y027090D03*
X007392Y022204D03*
D18*
X009896Y011732D03*
X009896Y011063D03*
X007796Y009682D03*
X007796Y009013D03*
X007796Y007932D03*
X007796Y007263D03*
X009896Y007813D03*
X009896Y008482D03*
X012896Y008482D03*
X012896Y007813D03*
X012946Y011063D03*
X012946Y011732D03*
X021012Y019297D03*
X021681Y019297D03*
X025562Y019797D03*
X026231Y019797D03*
X026562Y019297D03*
X027231Y019297D03*
X027131Y018597D03*
X026912Y018097D03*
X027581Y018097D03*
X026462Y018597D03*
X026431Y020647D03*
X025762Y020647D03*
X028112Y022447D03*
X028781Y022447D03*
X028512Y021247D03*
X029181Y021247D03*
X029112Y019197D03*
X029781Y019197D03*
X029381Y017397D03*
X028712Y017397D03*
X028862Y016297D03*
X029531Y016297D03*
X037696Y012332D03*
X037696Y011663D03*
X040546Y009232D03*
X040546Y008563D03*
X040546Y007832D03*
X040546Y007163D03*
X038886Y014850D03*
X038217Y014850D03*
X037996Y021563D03*
X037996Y022232D03*
X037996Y023063D03*
X037996Y023732D03*
X037996Y025063D03*
X037996Y025732D03*
X037996Y026563D03*
X037996Y027232D03*
X037996Y028563D03*
X037996Y029232D03*
X037996Y030063D03*
X037996Y030732D03*
X037996Y032063D03*
X037996Y032732D03*
X037996Y033563D03*
X037996Y034232D03*
X037996Y035563D03*
X037996Y036232D03*
X037996Y037063D03*
X037996Y037732D03*
X040996Y037732D03*
X040996Y037063D03*
X040996Y036232D03*
X040996Y035563D03*
X040996Y034232D03*
X040996Y033563D03*
X040996Y032732D03*
X040996Y032063D03*
X040996Y030732D03*
X040996Y030063D03*
X040996Y029232D03*
X040996Y028563D03*
X040996Y027232D03*
X040996Y026563D03*
X040996Y025732D03*
X040996Y025063D03*
X040996Y023732D03*
X040996Y023063D03*
X040996Y022232D03*
X040996Y021563D03*
X027796Y035563D03*
X027796Y036232D03*
X026796Y036232D03*
X026796Y035563D03*
X025796Y035563D03*
X025796Y036232D03*
X014496Y036232D03*
X014496Y035563D03*
X013496Y035563D03*
X013496Y036232D03*
X012496Y036232D03*
X012496Y035563D03*
D19*
X024246Y022482D03*
X024746Y022432D03*
X024746Y021763D03*
X024246Y021813D03*
X028112Y021947D03*
X028781Y021947D03*
X028512Y020747D03*
X029181Y020747D03*
X029112Y018647D03*
X029781Y018647D03*
X029381Y017897D03*
X028712Y017897D03*
X028862Y016797D03*
X029531Y016797D03*
X027581Y017597D03*
X026912Y017597D03*
X024046Y016482D03*
X024046Y015813D03*
X017446Y019768D03*
X017446Y020437D03*
X013546Y011732D03*
X013546Y011063D03*
X013496Y008482D03*
X013496Y007813D03*
X013212Y005147D03*
X013881Y005147D03*
X014862Y005147D03*
X015531Y005147D03*
X016662Y005147D03*
X017331Y005147D03*
X012031Y005197D03*
X011362Y005197D03*
X010381Y005147D03*
X009712Y005147D03*
X008531Y005147D03*
X007862Y005147D03*
X010496Y007813D03*
X010496Y008482D03*
X010496Y011063D03*
X010496Y011732D03*
X031112Y005147D03*
X031781Y005147D03*
X032912Y005147D03*
X033581Y005147D03*
X034562Y005147D03*
X035231Y005147D03*
X036312Y005147D03*
X036981Y005147D03*
X037912Y005147D03*
X038581Y005147D03*
X039712Y005147D03*
X040381Y005147D03*
X038381Y009547D03*
X037712Y009547D03*
X037712Y010197D03*
X038381Y010197D03*
X038206Y013757D03*
X038875Y013757D03*
X031996Y038897D03*
X031327Y038897D03*
X030422Y038897D03*
X029752Y038897D03*
D20*
X023681Y004897D03*
X024681Y003897D03*
X023681Y002897D03*
D21*
X031946Y007797D03*
X032946Y007797D03*
X032446Y008797D03*
X033446Y008797D03*
X032946Y010997D03*
X031946Y010997D03*
X032446Y011997D03*
X033446Y011997D03*
X036996Y021897D03*
X036996Y022897D03*
X035996Y022397D03*
X035996Y023397D03*
X036996Y025397D03*
X036996Y026397D03*
X035996Y025897D03*
X035996Y026897D03*
X036996Y028897D03*
X036996Y029897D03*
X035996Y029397D03*
X035996Y030397D03*
X033996Y029897D03*
X033996Y028897D03*
X032996Y029397D03*
X032996Y030397D03*
X033996Y032397D03*
X033996Y033397D03*
X032996Y032897D03*
X032996Y033897D03*
X033996Y035897D03*
X033996Y036897D03*
X032996Y036397D03*
X032996Y037397D03*
X035996Y037397D03*
X036996Y036897D03*
X036996Y035897D03*
X035996Y036397D03*
X035996Y033897D03*
X035996Y032897D03*
X036996Y032397D03*
X036996Y033397D03*
X038996Y032897D03*
X038996Y033897D03*
X039996Y033397D03*
X039996Y032397D03*
X041996Y032897D03*
X041996Y033897D03*
X042996Y033397D03*
X042996Y032397D03*
X041996Y030397D03*
X041996Y029397D03*
X042996Y028897D03*
X042996Y029897D03*
X041996Y026897D03*
X042996Y026397D03*
X042996Y025397D03*
X041996Y025897D03*
X039996Y025397D03*
X039996Y026397D03*
X038996Y025897D03*
X038996Y026897D03*
X039996Y028897D03*
X039996Y029897D03*
X038996Y029397D03*
X038996Y030397D03*
X039996Y035897D03*
X039996Y036897D03*
X038996Y036397D03*
X038996Y037397D03*
X041996Y037397D03*
X042996Y036897D03*
X042996Y035897D03*
X041996Y036397D03*
X041996Y023397D03*
X041996Y022397D03*
X042996Y021897D03*
X042996Y022897D03*
X039996Y022897D03*
X039996Y021897D03*
X038996Y022397D03*
X038996Y023397D03*
D22*
X039705Y023948D03*
X042705Y023948D03*
X042705Y027448D03*
X039705Y027448D03*
X036705Y027448D03*
X036705Y030948D03*
X033705Y030948D03*
X033705Y034448D03*
X036705Y034448D03*
X039705Y034448D03*
X042705Y034448D03*
X042705Y030948D03*
X039705Y030948D03*
X036705Y023948D03*
X033998Y011289D03*
X033998Y008089D03*
X033705Y037948D03*
X036705Y037948D03*
X039705Y037948D03*
X042705Y037948D03*
D23*
X032677Y038483D03*
X032677Y038843D03*
X029177Y038887D03*
X029177Y038527D03*
X039496Y020377D03*
X039496Y020017D03*
X039496Y014827D03*
X039496Y014467D03*
X039496Y013727D03*
X039496Y013367D03*
D24*
X039496Y013547D03*
X039496Y014647D03*
X039496Y020197D03*
X032677Y038663D03*
X029177Y038707D03*
D25*
X024796Y016971D03*
X024796Y016223D03*
D26*
X022270Y018247D03*
X021522Y018247D03*
X023822Y019897D03*
X024570Y019897D03*
D27*
X005678Y014206D03*
X005678Y010702D03*
D28*
X008001Y010702D03*
X008001Y014206D03*
D29*
X008040Y013084D03*
X008040Y012769D03*
X008040Y012454D03*
X008040Y012139D03*
X008040Y011824D03*
D30*
X006859Y011588D03*
X006859Y013320D03*
D31*
X015002Y014992D03*
X015102Y015992D03*
X015002Y016992D03*
X015102Y017992D03*
X015002Y018992D03*
X015102Y019992D03*
X016296Y012147D03*
X016196Y011147D03*
X016296Y010147D03*
X016196Y009147D03*
X016296Y008147D03*
X008946Y038647D03*
X009046Y039647D03*
X008946Y040647D03*
D32*
X042364Y011647D03*
D33*
X041364Y011647D03*
X041364Y012647D03*
X041364Y013647D03*
X042364Y013647D03*
X042364Y012647D03*
X042364Y014647D03*
X041364Y014647D03*
X041364Y015647D03*
X041364Y016647D03*
X041364Y017647D03*
X041364Y018647D03*
X042364Y018647D03*
X042364Y017647D03*
X042364Y016647D03*
X042364Y015647D03*
X029746Y012897D03*
X028746Y012897D03*
X027746Y012897D03*
X026746Y012897D03*
X025746Y012897D03*
X024746Y012897D03*
X023746Y012897D03*
X022746Y012897D03*
X021746Y012897D03*
X020746Y012897D03*
X019746Y012897D03*
X018746Y012897D03*
X018746Y006897D03*
X019746Y006897D03*
X020746Y006897D03*
X021746Y006897D03*
X022746Y006897D03*
X023746Y006897D03*
X024746Y006897D03*
X025746Y006897D03*
X026746Y006897D03*
X027746Y006897D03*
X028746Y006897D03*
X029746Y006897D03*
D34*
X018959Y021268D03*
X018459Y021268D03*
X017959Y021268D03*
X017459Y021268D03*
X016959Y021268D03*
X016459Y021268D03*
X015959Y021268D03*
X015959Y023318D03*
X016459Y023318D03*
X016959Y023318D03*
X017459Y023318D03*
X017959Y023318D03*
X018459Y023318D03*
X018959Y023318D03*
D35*
X009007Y009758D03*
X008507Y009758D03*
X008507Y007258D03*
X009007Y007258D03*
X039351Y007147D03*
X039851Y007147D03*
X039851Y009647D03*
X039351Y009647D03*
D36*
X040396Y006347D03*
X040396Y005847D03*
X037896Y005847D03*
X037896Y006347D03*
X037046Y006347D03*
X037046Y005847D03*
X034546Y005847D03*
X034546Y006347D03*
X033646Y006347D03*
X033646Y005847D03*
X031146Y005847D03*
X031146Y006347D03*
X017296Y006347D03*
X017296Y005847D03*
X014796Y005847D03*
X014796Y006347D03*
X013846Y006347D03*
X013846Y005847D03*
X011346Y005847D03*
X011346Y006347D03*
X010346Y006347D03*
X010346Y005847D03*
X007846Y005847D03*
X007846Y006347D03*
D37*
X029693Y039712D03*
X030087Y039712D03*
X030481Y039712D03*
X030874Y039712D03*
X031268Y039712D03*
X031662Y039712D03*
X032055Y039712D03*
X032449Y039712D03*
D38*
X032961Y040756D03*
X029181Y040756D03*
D39*
X027626Y039767D03*
X024477Y039767D03*
X021327Y039767D03*
X018177Y039767D03*
X015028Y039767D03*
X011878Y039767D03*
X040717Y039767D03*
X005996Y009181D03*
X007646Y003397D03*
X011977Y003397D03*
X016307Y003397D03*
X020736Y003397D03*
X026248Y003397D03*
X029299Y003397D03*
X033630Y003397D03*
X037961Y003397D03*
X042366Y005675D03*
D40*
X042691Y007053D02*
X042042Y007053D01*
X042042Y008431D02*
X042691Y008431D01*
X040717Y003722D02*
X040717Y003072D01*
X039339Y003072D02*
X039339Y003722D01*
X036386Y003722D02*
X036386Y003072D01*
X035008Y003072D02*
X035008Y003722D01*
X032055Y003722D02*
X032055Y003072D01*
X030677Y003072D02*
X030677Y003722D01*
X027626Y003722D02*
X027626Y003072D01*
X022114Y003072D02*
X022114Y003722D01*
X019063Y003722D02*
X019063Y003072D01*
X017685Y003072D02*
X017685Y003722D01*
X014733Y003722D02*
X014733Y003072D01*
X013355Y003072D02*
X013355Y003722D01*
X010402Y003722D02*
X010402Y003072D01*
X009024Y003072D02*
X009024Y003722D01*
X006321Y006425D02*
X005672Y006425D01*
X005672Y007803D02*
X006321Y007803D01*
X010500Y039443D02*
X010500Y040092D01*
X013650Y040092D02*
X013650Y039443D01*
X016799Y039443D02*
X016799Y040092D01*
X019949Y040092D02*
X019949Y039443D01*
X023099Y039443D02*
X023099Y040092D01*
X026248Y040092D02*
X026248Y039443D01*
X037961Y039443D02*
X037961Y040092D01*
X039339Y040092D02*
X039339Y039443D01*
D41*
X034457Y039101D03*
X034457Y040573D03*
D42*
X027796Y037920D03*
X027796Y037093D03*
X026796Y037084D03*
X026796Y037911D03*
X025796Y037911D03*
X025796Y037084D03*
X014496Y037042D03*
X014496Y037869D03*
X013496Y037868D03*
X013496Y037041D03*
X012496Y037041D03*
X012496Y037868D03*
D43*
X024529Y019221D03*
X024529Y018473D03*
X023663Y018847D03*
D44*
X038401Y012188D03*
X038992Y012188D03*
X038992Y011007D03*
X038401Y011007D03*
M02*
