%
M48
M72
T01C0.0120
T02C0.0236
T03C0.0240
T04C0.0315
T05C0.0354
T06C0.0400
T07C0.0402
T08C0.0433
T09C0.0472
T10C0.0551
T11C0.0591
T12C0.0945
T13C0.1339
%
T01
X8346Y3397
X9746Y3397
X11096Y3397
X12696Y3397
X14096Y3397
X15396Y3397
X17046Y3397
X18396Y3397
X19596Y3147
X19996Y3147
X19996Y3647
X19596Y3647
X20096Y5547
X20546Y5547
X21096Y5547
X22896Y3397
X25496Y3397
X27596Y5547
X28196Y5547
X28746Y5547
X29346Y5547
X29946Y5547
X30546Y5547
X32346Y6097
X31396Y8197
X31146Y8947
X30696Y9547
X31996Y9647
X30946Y11447
X31196Y11797
X29746Y12297
X28796Y11647
X28796Y11247
X29396Y10497
X29646Y10797
X27996Y10547
X25446Y7797
X24246Y7797
X22596Y8897
X24396Y10547
X22396Y11097
X19896Y9047
X18396Y9647
X18346Y10897
X17046Y12547
X16796Y12747
X18546Y14397
X18796Y14597
X19096Y14447
X19396Y14697
X19646Y14447
X19896Y14697
X20146Y14447
X20496Y14397
X20346Y14147
X20696Y14747
X20946Y14947
X21246Y14747
X21496Y14947
X21746Y14747
X21996Y14947
X22246Y14747
X22496Y14947
X24146Y14797
X24246Y15447
X24446Y15697
X24746Y15797
X25346Y14997
X25646Y15197
X24996Y14797
X26046Y17247
X25146Y18397
X24096Y18397
X22396Y17197
X21096Y18447
X20896Y18697
X20696Y18947
X21546Y19797
X19946Y21097
X19746Y20847
X19546Y20597
X19296Y20347
X19046Y20097
X18796Y19847
X18446Y20197
X18196Y19747
X17446Y19447
X16796Y19447
X17146Y20447
X16946Y21847
X17696Y21947
X19396Y21747
X20046Y22047
X20046Y22397
X19846Y22697
X20546Y23197
X20796Y23397
X21046Y23597
X21296Y23797
X21046Y24097
X21596Y23447
X22846Y23147
X23246Y23097
X24096Y22747
X23846Y22297
X23696Y21747
X23846Y20547
X25046Y21747
X25496Y21247
X25746Y20897
X26646Y20197
X26846Y19797
X27146Y19697
X27796Y18897
X27496Y18597
X28146Y17997
X28046Y17697
X28346Y17647
X28196Y16897
X27996Y16647
X28196Y16397
X27996Y16147
X28496Y16697
X29546Y15897
X30046Y15897
X30046Y16997
X30046Y17347
X30046Y18197
X30396Y18697
X30646Y18997
X30896Y19247
X31146Y19547
X30396Y19847
X29746Y20197
X29946Y20497
X30146Y20797
X30346Y21097
X31146Y21647
X32196Y21397
X34096Y22397
X34996Y22547
X35246Y22797
X34996Y23047
X35246Y23297
X34996Y23547
X34696Y23897
X34096Y24047
X33846Y24197
X34096Y23697
X34496Y24697
X33696Y24947
X33496Y26897
X33296Y28197
X33096Y28497
X32846Y28947
X32446Y31697
X32296Y31997
X32096Y32397
X31896Y35147
X31696Y35497
X31696Y35897
X31796Y36397
X31146Y36147
X30746Y35747
X30746Y36597
X30396Y36597
X29796Y36547
X29496Y36547
X29196Y36547
X29196Y36247
X30946Y37697
X30746Y38747
X30846Y39047
X30146Y40297
X29096Y40197
X29346Y39147
X28846Y39047
X26146Y38647
X25746Y39547
X25746Y39797
X25746Y40047
X23596Y40047
X23596Y39797
X23596Y39547
X23196Y36497
X22846Y36497
X24246Y36497
X24596Y36497
X25946Y34447
X25946Y34097
X25396Y33597
X25096Y33597
X26696Y29347
X28246Y28847
X27946Y27497
X27146Y27497
X26296Y27497
X25446Y27497
X24446Y27497
X24496Y26697
X24496Y26197
X25946Y25847
X26196Y25697
X25946Y25547
X26196Y25397
X25946Y25247
X25096Y23247
X25396Y23097
X25696Y22997
X25996Y22797
X26346Y22797
X26646Y22897
X25846Y22447
X26496Y21947
X27496Y21647
X27546Y21947
X27746Y21397
X27896Y21097
X28096Y20847
X28596Y19547
X28296Y19297
X28296Y18997
X28496Y18697
X31546Y16147
X32196Y16997
X32946Y17347
X33346Y15697
X33896Y15047
X34146Y14747
X34396Y13847
X33596Y13597
X32696Y13397
X32196Y13197
X31946Y14297
X32446Y14497
X33046Y14497
X34596Y15947
X34996Y15497
X35596Y15197
X35296Y14147
X35496Y13197
X35246Y12997
X35746Y12997
X35996Y13197
X36346Y11997
X36346Y11397
X36546Y10797
X36696Y9947
X36096Y8647
X35796Y5547
X35746Y3397
X34346Y3397
X32746Y3397
X31396Y3397
X29996Y3397
X28596Y3197
X28246Y3197
X28246Y3697
X28596Y3697
X37096Y3397
X38646Y3397
X40046Y3397
X39146Y5547
X40646Y6697
X41696Y5847
X41696Y5497
X42146Y6447
X40146Y8197
X42296Y9797
X42296Y10397
X40596Y10547
X41846Y12197
X39496Y12497
X38996Y14397
X39146Y15147
X38846Y15447
X38296Y15597
X37996Y15847
X37646Y15297
X37396Y14947
X37396Y13897
X40146Y15297
X40496Y15897
X38496Y17647
X39096Y17997
X38546Y18297
X37246Y18797
X37646Y19397
X37546Y19797
X37846Y20147
X38146Y20397
X37896Y20647
X37496Y21497
X37646Y22097
X36646Y21347
X36196Y20797
X35896Y21097
X35296Y21697
X34996Y21997
X35346Y22297
X36296Y21997
X37646Y23397
X37496Y24947
X37646Y25597
X37646Y26897
X37496Y28497
X37646Y29097
X37646Y30397
X37496Y31997
X37646Y32597
X37646Y33897
X37496Y35497
X37646Y36097
X37646Y37397
X38846Y39347
X38846Y39597
X38846Y39847
X38846Y40097
X38746Y40947
X39846Y40947
X39846Y40097
X39846Y39847
X39846Y39597
X39846Y39347
X41196Y40947
X41896Y40947
X43546Y40947
X43546Y39197
X40646Y37397
X40646Y36197
X40496Y35497
X40646Y33897
X40646Y32697
X40496Y31997
X40646Y30397
X40646Y29197
X40446Y28497
X40646Y26897
X40646Y25697
X40446Y24947
X40646Y23397
X40646Y22197
X40496Y21497
X39946Y20697
X39096Y20397
X39096Y19997
X40096Y19547
X41596Y21247
X42396Y20697
X42396Y19797
X37196Y17197
X36896Y20097
X36546Y20447
X30696Y24847
X29696Y24347
X29296Y24547
X29046Y24797
X28796Y25047
X28546Y25847
X29546Y26397
X29696Y26047
X29546Y26797
X30696Y26047
X24546Y22997
X22846Y25147
X22996Y26247
X22996Y26697
X21146Y27497
X20046Y27497
X19596Y28697
X18996Y27497
X17996Y27497
X17996Y26747
X17996Y26347
X16496Y26347
X16496Y26747
X14146Y25197
X13246Y25447
X12996Y25297
X12996Y25597
X13246Y25747
X12996Y25897
X13796Y27497
X14096Y28497
X14346Y30497
X13246Y31047
X13696Y32447
X12396Y33597
X12096Y33597
X12946Y34147
X12946Y34447
X10046Y37947
X9796Y38147
X9446Y38147
X9146Y37947
X10996Y39647
X10996Y39897
X10996Y40147
X12796Y38347
X14146Y39647
X14146Y39897
X14146Y40147
X17296Y40097
X17296Y39847
X17296Y39597
X17496Y36547
X17746Y36297
X17896Y36547
X18146Y36297
X19446Y34397
X19446Y34097
X18896Y33597
X18596Y33597
X20196Y32697
X20096Y38197
X20446Y39597
X20446Y39847
X20446Y40097
X31646Y40247
X33096Y39247
X33296Y39097
X33496Y39247
X33296Y39397
X33646Y40497
X33446Y40647
X33646Y40797
X33446Y40947
X37646Y40947
X35196Y36197
X20846Y25797
X19696Y25747
X19446Y25597
X19696Y25447
X19446Y25297
X19446Y25897
X19596Y24097
X19846Y23897
X20496Y24097
X19046Y23997
X16946Y23997
X15946Y22097
X11746Y21847
X11746Y20947
X10796Y20947
X10796Y21847
X10296Y24597
X10796Y24997
X10796Y25247
X10796Y25497
X10796Y25747
X11396Y27497
X8196Y25947
X7896Y25947
X7596Y25947
X7296Y25947
X7296Y24847
X7596Y24847
X7896Y24847
X8196Y24847
X6796Y20497
X6796Y19347
X6796Y18247
X6796Y17047
X6796Y15647
X6796Y14397
X6846Y12847
X7146Y12647
X6846Y12447
X7146Y12247
X6846Y12047
X8746Y11397
X9046Y11197
X9696Y9647
X11046Y10597
X10946Y11097
X10946Y11647
X11496Y12497
X12346Y12997
X12696Y12747
X13046Y14097
X11746Y14447
X11296Y14097
X10296Y14897
X10746Y15347
X11746Y15347
X11746Y17697
X11746Y18597
X10746Y18597
X10746Y17697
X9146Y14097
X8846Y13047
X9646Y12847
X12296Y10047
X12696Y9647
X12296Y9297
X11596Y9297
X10996Y8447
X10996Y7897
X10196Y6897
X9046Y6247
X8846Y7897
X13346Y6897
X13946Y7847
X13946Y8447
X13996Y11097
X13996Y11697
X14796Y14097
X18096Y7897
X17346Y7497
X17596Y7147
X17696Y6847
X17946Y5547
X18446Y5547
X20196Y21697
X8146Y30797
X7846Y30797
X7546Y30797
X7246Y30797
X7246Y31997
X7546Y31997
X7846Y31997
X8146Y31997
X6896Y35497
X6896Y35747
X6896Y35997
X6896Y36247
X6596Y36247
X6596Y35997
X6596Y35747
X6596Y35497
X8246Y40397
X8246Y40647
X8246Y40897
T02
X10746Y21397
X11746Y21397
X12746Y21397
X12746Y18147
X11746Y18147
X10746Y18147
X10746Y14897
X11746Y14897
X12746Y14897
T03
X23681Y4897
X24681Y3897
X23681Y2897
T04
X31946Y7797
X32946Y7797
X32446Y8797
X33446Y8797
X32946Y10997
X31946Y10997
X32446Y11997
X33446Y11997
X36996Y21897
X36996Y22897
X35996Y22397
X35996Y23397
X36996Y25397
X36996Y26397
X35996Y25897
X35996Y26897
X36996Y28897
X36996Y29897
X35996Y29397
X35996Y30397
X33996Y29897
X33996Y28897
X32996Y29397
X32996Y30397
X33996Y32397
X33996Y33397
X32996Y32897
X32996Y33897
X33996Y35897
X33996Y36897
X32996Y36397
X32996Y37397
X34457Y39101
X35245Y39101
X36032Y39101
X35996Y37397
X36996Y36897
X36996Y35897
X35996Y36397
X35996Y33897
X35996Y32897
X36996Y32397
X36996Y33397
X38996Y32897
X38996Y33897
X39996Y33397
X39996Y32397
X41996Y32897
X41996Y33897
X42996Y33397
X42996Y32397
X41996Y30397
X41996Y29397
X42996Y28897
X42996Y29897
X41996Y26897
X42996Y26397
X42996Y25397
X41996Y25897
X39996Y25397
X39996Y26397
X38996Y25897
X38996Y26897
X39996Y28897
X39996Y29897
X38996Y29397
X38996Y30397
X39996Y35897
X39996Y36897
X38996Y36397
X38996Y37397
X41996Y37397
X42996Y36897
X42996Y35897
X41996Y36397
X36032Y40573
X35245Y40573
X34457Y40573
X38996Y23397
X38996Y22397
X39996Y21897
X39996Y22897
X41996Y22397
X41996Y23397
X42996Y22897
X42996Y21897
X8179Y19929
X8179Y18944
X8179Y17960
X8179Y16976
X8179Y15992
T05
X6859Y13320
X6859Y11588
T06
X15002Y14992
X15102Y15992
X15002Y16992
X15102Y17992
X15002Y18992
X15102Y19992
X16296Y12147
X16196Y11147
X16296Y10147
X16196Y9147
X16296Y8147
X8946Y38647
X9046Y39647
X8946Y40647
T07
X41364Y18647
X41364Y17647
X41364Y16647
X41364Y15647
X41364Y14647
X42364Y14647
X42364Y15647
X42364Y16647
X42364Y17647
X42364Y18647
X42364Y13647
X41364Y13647
X41364Y12647
X41364Y11647
X42364Y11647
X42364Y12647
T08
X42366Y8431
X42366Y7053
X42366Y5675
X40717Y3397
X39339Y3397
X37961Y3397
X36386Y3397
X35008Y3397
X33630Y3397
X32055Y3397
X30677Y3397
X29299Y3397
X27626Y3397
X26248Y3397
X26746Y6897
X27746Y6897
X28746Y6897
X29746Y6897
X25746Y6897
X24746Y6897
X23746Y6897
X22746Y6897
X21746Y6897
X20746Y6897
X19746Y6897
X18746Y6897
X19063Y3397
X17685Y3397
X16307Y3397
X14733Y3397
X13355Y3397
X11977Y3397
X10402Y3397
X9024Y3397
X7646Y3397
X5996Y6425
X5996Y7803
X5996Y9181
X18746Y12897
X19746Y12897
X20746Y12897
X21746Y12897
X22746Y12897
X23746Y12897
X24746Y12897
X25746Y12897
X26746Y12897
X27746Y12897
X28746Y12897
X29746Y12897
X22114Y3397
X20736Y3397
X21327Y39767
X19949Y39767
X18177Y39767
X16799Y39767
X15028Y39767
X13650Y39767
X11878Y39767
X10500Y39767
X23099Y39767
X24477Y39767
X26248Y39767
X27626Y39767
X37961Y39767
X39339Y39767
X40717Y39767
T09
X7746Y35897
X7746Y34397
X7746Y32897
X7746Y31397
X7746Y25397
X7746Y23897
T10
X12246Y25522
X17246Y25522
X18746Y25522
X17246Y29272
X17246Y30522
X17246Y31772
X17246Y34272
X18746Y34272
X23746Y34272
X25246Y34272
X23746Y31772
X23746Y30522
X23746Y29272
X23746Y25522
X25246Y25522
X30246Y25522
X30246Y29272
X30246Y30522
X30246Y31772
X30246Y34272
X12246Y34272
T11
X33705Y34448
X36705Y34448
X39705Y34448
X42705Y34448
X42705Y30948
X39705Y30948
X36705Y30948
X33705Y30948
X36705Y27448
X39705Y27448
X42705Y27448
X42705Y23948
X39705Y23948
X36705Y23948
X33998Y11289
X33998Y8089
X33705Y37948
X36705Y37948
X39705Y37948
X42705Y37948
T12
X7392Y37590
X7392Y29704
X7392Y27090
X7392Y22204
T13
X5677Y3078
X42685Y3078
X42685Y40086
X5677Y40086
M30
